# 3ds Max Wavefront OBJ Exporter v0.97b - (c)2007 guruware
# File Created: 05.12.2016 00:43:45

mtllib hatchback.mtl

#
# object Hatchback
#

v -0.421896134 -0.495565811 1.568626282
v -1.166222987 -0.495565811 1.560000065
v -1.218320291 -0.560526853 1.482426318
v 1.810755334 -0.645669288 0.969726267
v 1.318434750 -0.642623252 1.075980631
v 1.266480663 -0.781940472 0.920563568
v 1.685992394 -0.777913663 0.853881458
v 1.862816071 -0.740761503 0.838933322
v -0.269772739 -0.781117524 0.230165516
v 0.990343929 -0.781117524 0.202125126
v 1.007755404 -0.834534747 0.421277182
v -0.294692418 -0.834534747 0.452293202
v 1.145264617 -0.834534747 0.600745528
v -0.315084016 -0.834534747 0.634055479
v -2.333721211 0.000000000 0.362583653
v -2.035477328 0.000000000 0.295364996
v -2.035477328 -0.563194107 0.295364996
v -2.035477328 -0.774750386 0.295364996
v -2.169351279 -0.709861493 0.326409528
v -2.281861587 -0.566470116 0.351907154
v 0.990343929 0.000000000 0.202125126
v 0.990343929 -0.563194107 0.202125126
v -1.153452338 -0.563194107 0.249828522
v -1.153452338 0.000000000 0.249828522
v 2.368894585 0.000000000 0.219470873
v 2.326810251 -0.349241132 0.219470873
v 2.275489974 -0.595762559 0.215054084
v 2.092102712 -0.728065556 0.210639887
v 1.864687028 0.000000000 0.199955612
v 1.864687028 -0.775440310 0.199955612
v 1.864687028 -0.563194107 0.199955612
v 2.400000000 0.000000000 0.583754886
v 2.356571868 -0.384443018 0.604190312
v 2.352171768 -0.375541651 0.407638013
v 2.395849767 0.000000000 0.407155898
v 2.349017957 0.000000000 0.620615895
v 2.278247654 -0.384443018 0.645379981
v 2.273585499 0.000000000 0.785294218
v 2.206764315 -0.384332540 0.794018931
v 2.176140352 0.000000000 0.858596328
v 2.134951883 -0.384443018 0.862448059
v 1.829144948 0.000000000 0.992616329
v 2.032472828 -0.582469129 0.889477564
v 1.519538203 0.000000000 1.075607381
v 0.564628180 0.000000000 1.429414481
v 0.546860187 -0.540679149 1.399437857
v 0.093040476 0.000000000 1.550845077
v 0.093040476 -0.495565811 1.519471359
v -0.421896134 0.000000000 1.600000000
v -1.166222987 0.000000000 1.591373783
v -1.985592263 0.000000000 1.363191156
v -1.928058825 -0.514164438 1.345531776
v -1.817535266 -0.489250530 1.420415014
v -2.145583426 -0.601306749 1.089897146
v -2.078244226 -0.614149248 1.185018816
v -2.099592633 -0.545553707 1.191929121
v -2.158326652 -0.534289464 1.091110208
v -2.233783488 -0.544859274 0.855263000
v -2.128254225 -0.689549331 0.915540248
v -2.274633722 -0.574801057 0.796253246
v -2.181704467 -0.741548377 0.796253246
v -2.210094862 -0.741548377 0.644654217
v -2.304907262 -0.571274780 0.644467593
v -2.350703037 -0.568880340 0.583754886
v -2.039999314 -0.709209899 1.103982141
v 1.201429880 -0.834534747 0.741398488
v 1.433056740 -0.834534747 0.680714294
v -0.346780580 -0.801073452 0.916587421
v -1.670948562 0.000000000 1.563854387
v -1.655990051 -0.495565811 1.529867921
v -1.505119039 -0.746957287 1.047660304
v -1.829784851 -0.726798441 1.057455519
v -1.831966618 -0.737241991 1.015908152
v -1.438075413 -0.701586919 1.155218450
v -1.700018473 -0.654944927 1.270223448
v -1.907332040 -0.583104941 1.326503813
v -1.792688719 -0.548974015 1.411628092
v -1.521777866 -0.577330776 1.425796031
v -1.866399532 -0.834534747 0.654978203
v -1.581700277 -0.834534747 0.720361715
v -2.011529694 -0.802493883 0.484123114
v 2.219766549 -0.638411562 0.643332291
v 2.286060574 -0.629489903 0.408405248
v 1.901585095 -0.789331223 0.704073509
v 2.157982323 -0.620085748 0.678023785
v 1.905650007 -0.749753056 0.725957870
v 2.100823686 -0.615533605 0.807886198
v 2.087885442 -0.773345738 0.409175076
v 1.864037983 -0.834534747 0.410131528
v 1.710598215 -0.834534747 0.600685911
v 1.801696126 -0.768169056 0.760828213
v 1.770883239 -0.794277930 0.754133045
v 1.007755404 -0.563194107 0.421277182
v 1.864037983 -0.563194107 0.410131528
v 1.710595168 -0.563194107 0.600685911
v 1.433056740 -0.563194107 0.680714294
v 1.145264617 -0.563194107 0.600745528
v -0.413376273 -0.546013656 1.495212715
v 0.031189212 -0.546575064 1.457431543
v 0.527711830 -0.590570095 1.335466992
v -0.363088983 -0.740664553 1.061950068
v -1.342083763 -0.834534747 0.657479495
v -1.171293463 -0.834534747 0.473169270
v -1.153452338 -0.781117524 0.249828522
v -2.259797097 0.000000000 0.843959234
v -2.320974939 0.000000000 0.796253246
v -2.349017957 0.000000000 0.644467593
v -2.400000000 0.000000000 0.572979891
v -2.034563180 -0.536120242 1.265868867
v -2.011529694 -0.563194107 0.484123114
v -1.866399532 -0.563194107 0.654978203
v -1.581700277 -0.563194107 0.720361715
v -1.342083763 -0.563194107 0.657479495
v -1.171293463 -0.563194107 0.473169270
v 0.740205569 -0.813374835 1.005361254
v 0.739050695 -0.814594602 1.093453387
v 0.656804786 -0.901506938 1.079104006
v 0.621146913 -0.939186688 1.043046522
v 0.616213560 -0.944399444 0.999166344
v 0.638835680 -0.920493365 0.978196964
v 0.723053102 -0.831499985 0.979213033
v 0.635358870 -0.755709848 0.994485170
v 0.634325882 -0.757811184 1.126835914
v 0.571301461 -0.885938564 1.108393746
v 0.544111648 -0.941206856 1.062292214
v 0.539787727 -0.950000000 0.997745921
v 0.559560752 -0.909804059 0.967012430
v 0.625132599 -0.776504506 0.968336949
v 0.631169024 -0.768173566 0.946799918
v 0.769924526 -0.791204839 0.875019319
v 0.639929611 -0.749405840 0.978184004
v 0.779769901 -0.779358896 0.917409089
v -2.007184443 -0.619393570 1.210770459
v -2.005380524 -0.599092680 1.253701961
v -1.849432942 -0.695370843 1.115052626
v -2.066515705 0.000000000 1.281032139
v -2.141110195 0.000000000 1.205293537
v -2.196068782 0.000000000 1.100760270
v -0.421896134 0.495565811 1.568626282
v -1.218320291 0.560526853 1.482426318
v -1.166222987 0.495565811 1.560000065
v 1.266480663 0.781940472 0.920563568
v 1.318434750 0.642623252 1.075980631
v 1.810755334 0.645669288 0.969726267
v 1.685992394 0.777913663 0.853881458
v 1.862816071 0.740761503 0.838933322
v -0.269772739 0.781117524 0.230165516
v -0.294692418 0.834534747 0.452293202
v 1.007755404 0.834534747 0.421277182
v 0.990343929 0.781117524 0.202125126
v -0.315084016 0.834534747 0.634055479
v 1.145264617 0.834534747 0.600745528
v -2.281861587 0.566470116 0.351907154
v -2.169351279 0.709861493 0.326409528
v -2.035477328 0.774750386 0.295364996
v -2.035477328 0.563194107 0.295364996
v -1.153452338 0.563194107 0.249828522
v 0.990343929 0.563194107 0.202125126
v 1.864687028 0.563194107 0.199955612
v 1.864687028 0.775440310 0.199955612
v 2.092102712 0.728065556 0.210639887
v 2.275489974 0.595762559 0.215054084
v 2.326810251 0.349241132 0.219470873
v 2.352171768 0.375541651 0.407638013
v 2.356571868 0.384443018 0.604190312
v 2.278247654 0.384443018 0.645379981
v 2.206764315 0.384332540 0.794018931
v 2.134951883 0.384443018 0.862448059
v 2.032472828 0.582469129 0.889477564
v 0.546860187 0.540679149 1.399437857
v 0.093040476 0.495565811 1.519471359
v -1.817535266 0.489250530 1.420415014
v -1.928058825 0.514164438 1.345531776
v -2.145583426 0.601306749 1.089897146
v -2.158326652 0.534289464 1.091110208
v -2.099592633 0.545553707 1.191929121
v -2.078244226 0.614149248 1.185018816
v -2.233783488 0.544859274 0.855263000
v -2.128254225 0.689549331 0.915540248
v -2.274633722 0.574801057 0.796253246
v -2.181704467 0.741548377 0.796253246
v -2.210094862 0.741548377 0.644654217
v -2.304907262 0.571274780 0.644467593
v -2.350703037 0.568880340 0.583754886
v -2.039999314 0.709209899 1.103982141
v 1.201429880 0.834534747 0.741398488
v 1.433056740 0.834534747 0.680714294
v -0.346780580 0.801073452 0.916587421
v -1.655990051 0.495565811 1.529867921
v -1.505119039 0.746957287 1.047660304
v -1.831966618 0.737241991 1.015908152
v -1.829784851 0.726798441 1.057455519
v -1.700018473 0.654944927 1.270223448
v -1.438075413 0.701586919 1.155218450
v -1.792688719 0.548974015 1.411628092
v -1.907332040 0.583104941 1.326503813
v -1.521777866 0.577330776 1.425796031
v -1.866399532 0.834534747 0.654978203
v -1.581700277 0.834534747 0.720361715
v -2.011529694 0.802493883 0.484123114
v 2.286060574 0.629489903 0.408405248
v 2.219766549 0.638413817 0.643332291
v 1.901585095 0.789331223 0.704073509
v 1.905650007 0.749753056 0.725957870
v 2.157982323 0.620085748 0.678023785
v 2.100823686 0.615533605 0.807886198
v 1.864037983 0.834534747 0.410131528
v 2.087885442 0.773345738 0.409175076
v 1.710598215 0.834534747 0.600685911
v 1.801696126 0.768169056 0.760828213
v 1.770883239 0.794277930 0.754133045
v 1.007755404 0.563194107 0.421277182
v 1.864037983 0.563194107 0.410131528
v 1.710595168 0.563194107 0.600685911
v 1.433056740 0.563194107 0.680714294
v 1.145264617 0.563194107 0.600745528
v -0.413376273 0.546013656 1.495212715
v 0.031189212 0.546575064 1.457431543
v 0.527711830 0.590570095 1.335466992
v -0.363088983 0.740664553 1.061950068
v -1.342083763 0.834534747 0.657479495
v -1.171293463 0.834534747 0.473169270
v -1.153452338 0.781117524 0.249828522
v -2.034563180 0.536120242 1.265868867
v -2.011529694 0.563194107 0.484123114
v -1.866399532 0.563194107 0.654978203
v -1.581700277 0.563194107 0.720361715
v -1.342083763 0.563194107 0.657479495
v -1.171293463 0.563194107 0.473169270
v 0.638835680 0.920493365 0.978196964
v 0.616213560 0.944399444 0.999166344
v 0.621146913 0.939186688 1.043046522
v 0.656804786 0.901506938 1.079104006
v 0.739050695 0.814594602 1.093453387
v 0.740205569 0.813374835 1.005361254
v 0.723053102 0.831499985 0.979213033
v 0.635358870 0.755709848 0.994485170
v 0.634325882 0.757811184 1.126835914
v 0.571301461 0.885938564 1.108393746
v 0.544111648 0.941206856 1.062292214
v 0.539787727 0.950000000 0.997745921
v 0.559560752 0.909804059 0.967012430
v 0.625132599 0.776504506 0.968336949
v 0.769924526 0.791204839 0.875019319
v 0.631169024 0.768173566 0.946799918
v 0.639929611 0.749405840 0.978184004
v 0.779769901 0.779358896 0.917409089
v -2.007184443 0.619393570 1.210770459
v -2.005380524 0.599092680 1.253701961
v -1.849432942 0.695373097 1.115052626
# 250 vertices

vn 0.038255982 -0.501540653 0.864287830
vn -0.034542575 -0.462812286 0.885783043
vn -0.032686919 -0.838931760 0.543254147
vn 0.283305247 -0.444536114 0.849779842
vn 0.234875570 -0.497730388 0.834923905
vn 0.077753100 -0.890311571 0.448664420
vn 0.141859198 -0.880904384 0.451534533
vn 0.328443387 -0.848303505 0.415338542
vn -0.005374341 -0.972087310 -0.234557835
vn -0.005225864 -0.971632703 -0.236437267
vn -0.002223247 -0.995061916 -0.099231250
vn -0.002743718 -0.993077867 -0.117425812
vn 0.000000000 -1.000000000 0.000000000
vn -0.007552047 -0.998043844 0.062060074
vn -0.220720001 0.000000000 -0.975337214
vn -0.135806469 0.000000000 -0.990735385
vn -0.163992677 0.000000000 -0.986461556
vn -0.224839544 -0.002785672 -0.974391820
vn -0.228873621 -0.006502275 -0.973434428
vn -0.225802957 -0.002553745 -0.974169648
vn -0.012334460 0.000000000 -0.999923928
vn -0.015652843 0.000000000 -0.999877487
vn -0.031989788 0.000000000 -0.999488196
vn -0.036925487 0.000000000 -0.999318022
vn 0.039736852 0.000000000 -0.999210179
vn 0.200129108 -0.024093643 -0.979473244
vn 0.023820306 0.003679214 -0.999709486
vn 0.040246565 0.000344989 -0.999189719
vn 0.018714371 0.000000000 -0.999824871
vn 0.046888608 0.000000000 -0.998900124
vn 0.030456774 0.000000000 -0.999536085
vn 0.890267316 0.000000000 0.455438366
vn 0.832505821 -0.166590542 0.528376428
vn 0.978182848 -0.185491674 -0.093547610
vn 0.996477550 0.000000000 -0.083859955
vn 0.752224969 0.000000000 0.658906363
vn 0.686678269 -0.156335106 0.709952315
vn 0.786626031 0.000000000 0.617429742
vn 0.790289231 -0.224945034 0.569949703
vn 0.485430107 0.000000000 0.874275478
vn 0.528095430 -0.117846591 0.840968131
vn 0.302004733 0.000000000 0.953306426
vn 0.488978278 -0.353576266 0.797423393
vn 0.303517199 0.000000000 0.952825960
vn 0.298870995 0.000000000 0.954293523
vn 0.222779663 -0.486630652 0.844724707
vn 0.171772312 0.000000000 0.985136677
vn 0.133663480 -0.472260443 0.871265831
vn 0.041609814 0.000000000 0.999133937
vn -0.033012944 0.000000000 0.999454924
vn -0.630225794 0.000000000 0.776411907
vn -0.540367620 -0.221936940 0.811632201
vn -0.534591893 -0.197834682 0.821628229
vn -0.826657345 -0.430511936 0.362349426
vn -0.582828834 -0.556921004 0.591734354
vn -0.789378336 -0.180676239 0.586717938
vn -0.908251542 -0.124277249 0.399542616
vn -0.861590196 -0.183448702 0.473295794
vn -0.561245789 -0.735662316 0.379215139
vn -0.877990866 -0.264296128 0.399098479
vn -0.525154016 -0.797286390 0.297569609
vn -0.577255278 -0.815965789 0.031243799
vn -0.874547557 -0.276350602 0.398493307
vn -0.928041021 -0.340243561 0.151572369
vn -0.578852029 -0.801807951 -0.148439680
vn -0.890101557 -0.368520917 -0.268163294
vn -0.290394938 -0.893236822 0.343218239
vn 0.016407806 -0.989452521 0.143925305
vn 0.052380526 -0.980114946 0.191392199
vn -0.008816849 -0.968727389 0.247970784
vn -0.303517199 0.000000000 0.952825960
vn -0.253455619 -0.469979948 0.845505232
vn -0.013898273 -0.950952894 0.309023350
vn -0.090974159 -0.952187612 0.291654683
vn -0.136805362 -0.953000664 0.270322080
vn 0.002047597 -0.918239463 0.396020323
vn -0.086833802 -0.892731290 0.442143342
vn -0.337233161 -0.683045701 0.647859835
vn -0.318441245 -0.647451082 0.692388814
vn -0.048798293 -0.859028026 0.509597466
vn -0.165452605 -0.968260721 0.187340897
vn -0.002916094 -0.966377425 0.257111199
vn -0.448832513 -0.890547126 -0.073994534
vn -0.349671823 -0.935399961 -0.052502653
vn 0.617946308 -0.550420682 0.561408437
vn 0.794143793 -0.607684817 -0.007402653
vn 0.317879108 -0.825287197 0.466748235
vn 0.572794836 -0.449261148 0.685616873
vn 0.412287288 -0.715404205 0.564106386
vn 0.632405593 -0.605246351 0.483466670
vn 0.230896094 -0.943690723 -0.236927863
vn 0.404639434 -0.893417109 -0.195122519
vn 0.412971690 -0.910420927 -0.024251173
vn 0.242584616 -0.969526846 -0.034211102
vn 0.832536660 -0.536323027 -0.138709485
vn 0.975374301 -0.168978208 -0.141743916
vn 0.989837518 0.000000000 -0.142202981
vn 0.113982902 -0.976040315 0.185346167
vn 0.322669786 -0.818351118 0.475589799
vn 0.229683373 -0.890684172 0.392335639
vn 0.996861241 0.000000000 -0.079168587
vn 0.930725321 0.000000000 -0.365718986
vn 0.920138640 0.000000000 -0.391592751
vn -0.999995329 0.000000000 -0.003056536
vn -0.925210811 0.000000000 -0.379453495
vn -0.939186789 0.000000000 -0.343406721
vn -0.541820200 0.000000000 -0.840494421
vn -0.004678425 0.000000000 -0.999989056
vn -0.004678425 0.000000000 -0.999989056
vn 0.546523199 0.000000000 -0.837443964
vn 0.026444572 -0.868352843 0.495241380
vn 0.044208659 -0.855449012 0.515996688
vn 0.065018382 -0.849257933 0.523959516
vn 0.010774470 -0.916463289 0.399973688
vn 0.018814759 -0.984259562 0.175724554
vn -0.002222754 -0.995742289 -0.092153961
vn -0.005523044 -0.972388006 -0.233304653
vn -0.832321798 0.000000000 0.554292725
vn -0.848789908 0.000000000 0.528730264
vn -0.917242291 0.000000000 0.398329738
vn -0.987394714 0.000000000 0.158277218
vn -0.954833234 0.000000000 -0.297142213
vn -0.629868255 -0.224443736 0.743566400
vn 0.911477521 0.000000000 -0.411349885
vn 0.897842784 0.000000000 -0.440316176
vn 0.992046957 0.000000000 -0.125868325
vn 0.506563999 0.000000000 -0.862202363
vn 0.489811390 0.000000000 -0.871828425
vn -0.015142543 0.000000000 -0.999885345
vn -0.504016283 0.000000000 -0.863694151
vn -0.897205083 0.000000000 -0.441614130
vn -0.910937385 0.000000000 -0.412544641
vn -0.996824053 0.000000000 -0.079635460
vn -0.022287710 0.000000000 -0.999751598
vn 0.000000000 -1.000000000 0.000000000
vn 0.000000000 -1.000000000 0.000000000
vn 0.974493450 0.086505338 0.207073276
vn 0.808331799 0.100014819 0.580169578
vn 0.477016731 -0.679753421 0.557126848
vn 0.362090552 -0.886461402 0.288230142
vn 0.310813905 -0.912275532 -0.266735955
vn 0.455451877 -0.607995736 -0.650311289
vn 0.455608661 -0.781671300 -0.425923382
vn 0.432750350 0.864116086 0.256964051
vn 0.518509364 0.479644074 0.707876827
vn 0.214395700 -0.506931847 0.834897950
vn 0.135942738 -0.889999732 0.435224137
vn 0.064601235 -0.954708411 -0.290445401
vn 0.067603108 -0.388162372 -0.919108151
vn -0.238687705 -0.579072352 -0.779553328
vn -0.897325329 0.441369748 0.000000000
vn -0.884917483 0.465140350 -0.023780333
vn -0.887880877 0.459707978 -0.018333672
vn -0.394036403 -0.801704591 -0.449449733
vn 0.178979304 -0.942018332 -0.283844800
vn -0.868257133 0.493312338 -0.052654430
vn 0.897368743 -0.354029034 0.263425098
vn 0.361722542 0.830902321 0.422797983
vn -0.179204764 -0.842046644 0.508766254
vn -0.379734768 -0.693263807 0.612524939
vn -0.101216872 -0.875339336 0.472796141
vn -0.705083360 0.000000000 0.709124429
vn -0.806540310 0.000000000 0.591179100
vn -0.931248179 0.000000000 0.364385550
vn 0.038255982 0.501540653 0.864287830
vn -0.032686919 0.838931760 0.543254147
vn -0.034542575 0.462812286 0.885783043
vn 0.077753100 0.890311571 0.448664420
vn 0.234875570 0.497730388 0.834923905
vn 0.283305247 0.444536114 0.849779842
vn 0.141859198 0.880904384 0.451534533
vn 0.328443387 0.848303505 0.415338542
vn -0.005374341 0.972087310 -0.234557835
vn -0.002743718 0.993077867 -0.117425812
vn -0.002223247 0.995061916 -0.099231250
vn -0.005225864 0.971632703 -0.236437267
vn -0.007552047 0.998043844 0.062060074
vn 0.000000000 1.000000000 0.000000000
vn -0.225802957 0.002553745 -0.974169648
vn -0.228873621 0.006502275 -0.973434428
vn -0.224839544 0.002785672 -0.974391820
vn -0.163992677 0.000000000 -0.986461556
vn -0.031989788 0.000000000 -0.999488196
vn -0.015652843 0.000000000 -0.999877487
vn 0.030456774 0.000000000 -0.999536085
vn 0.046888608 0.000000000 -0.998900124
vn 0.040246565 -0.000344989 -0.999189719
vn 0.023820306 -0.003679214 -0.999709486
vn 0.200129108 0.024093643 -0.979473244
vn 0.978182848 0.185491674 -0.093547610
vn 0.832505821 0.166590542 0.528376428
vn 0.686678269 0.156335106 0.709952315
vn 0.790289231 0.224945034 0.569949703
vn 0.528095430 0.117846591 0.840968131
vn 0.488978278 0.353576266 0.797423393
vn 0.222779663 0.486630652 0.844724707
vn 0.133663480 0.472260443 0.871265831
vn -0.534591893 0.197834682 0.821628229
vn -0.540367620 0.221936940 0.811632201
vn -0.826657345 0.430511936 0.362349426
vn -0.908251542 0.124277249 0.399542616
vn -0.789378336 0.180676239 0.586717938
vn -0.582828834 0.556921004 0.591734354
vn -0.861590196 0.183448702 0.473295794
vn -0.561245789 0.735662316 0.379215139
vn -0.877990866 0.264296128 0.399098479
vn -0.525154016 0.797286390 0.297569609
vn -0.577255278 0.815965789 0.031243799
vn -0.874547557 0.276350602 0.398493307
vn -0.928041021 0.340243561 0.151572369
vn -0.578852029 0.801807951 -0.148439680
vn -0.890101557 0.368520917 -0.268163294
vn -0.290394938 0.893236822 0.343218239
vn 0.016407806 0.989452521 0.143925305
vn 0.052380526 0.980114946 0.191392199
vn -0.008816849 0.968727389 0.247970784
vn -0.253455619 0.469979948 0.845505232
vn -0.013898273 0.950952894 0.309023350
vn -0.136805362 0.953000664 0.270322080
vn -0.090974159 0.952187612 0.291654683
vn -0.086833802 0.892731290 0.442143342
vn 0.002047597 0.918239463 0.396020323
vn -0.318441245 0.647451082 0.692388814
vn -0.337233161 0.683045701 0.647859835
vn -0.048798293 0.859028026 0.509597466
vn -0.165452605 0.968260721 0.187340897
vn -0.002916094 0.966377425 0.257111199
vn -0.349671823 0.935399961 -0.052502653
vn -0.448832513 0.890547126 -0.073994534
vn 0.794143793 0.607684817 -0.007402653
vn 0.617946308 0.550420682 0.561408437
vn 0.317879108 0.825287197 0.466748235
vn 0.412287288 0.715404205 0.564106386
vn 0.572794836 0.449261148 0.685616873
vn 0.632405593 0.605246351 0.483466670
vn 0.230896094 0.943690723 -0.236927863
vn 0.242584616 0.969526846 -0.034211102
vn 0.412971690 0.910420927 -0.024251173
vn 0.404639434 0.893417109 -0.195122519
vn 0.832536660 0.536323027 -0.138709485
vn 0.975374301 0.168978208 -0.141743916
vn 0.113982902 0.976040315 0.185346167
vn 0.322669786 0.818351118 0.475589799
vn 0.229683373 0.890684172 0.392335639
vn 0.996861241 0.000000000 -0.079168587
vn 0.920138640 0.000000000 -0.391592751
vn 0.930725321 0.000000000 -0.365718986
vn -0.999995329 0.000000000 -0.003056536
vn -0.939186789 0.000000000 -0.343406721
vn -0.925210811 0.000000000 -0.379453495
vn -0.541820200 0.000000000 -0.840494421
vn 0.546523199 0.000000000 -0.837443964
vn 0.026444572 0.868352843 0.495241380
vn 0.044208659 0.855449012 0.515996688
vn 0.065018382 0.849257933 0.523959516
vn 0.010774470 0.916463289 0.399973688
vn 0.018814759 0.984259562 0.175724554
vn -0.002222754 0.995742289 -0.092153961
vn -0.005523044 0.972388006 -0.233304653
vn -0.629868255 0.224443736 0.743566400
vn 0.911477521 0.000000000 -0.411349885
vn 0.992046957 0.000000000 -0.125868325
vn 0.897842784 0.000000000 -0.440316176
vn 0.506563999 0.000000000 -0.862202363
vn 0.489811390 0.000000000 -0.871828425
vn -0.015142543 0.000000000 -0.999885345
vn -0.504016283 0.000000000 -0.863694151
vn -0.897205083 0.000000000 -0.441614130
vn -0.910937385 0.000000000 -0.412544641
vn -0.996824053 0.000000000 -0.079635460
vn -0.022287710 0.000000000 -0.999751598
vn 0.000000000 1.000000000 0.000000000
vn 0.000000000 1.000000000 0.000000000
vn 0.455451877 0.607995736 -0.650311289
vn 0.310813905 0.912275532 -0.266735955
vn 0.362090552 0.886461402 0.288230142
vn 0.477016731 0.679753421 0.557126848
vn 0.808331799 -0.100014819 0.580169578
vn 0.974493450 -0.086505338 0.207073276
vn 0.455608661 0.781671300 -0.425923382
vn 0.432750350 -0.864116086 0.256964051
vn 0.518509364 -0.479644074 0.707876827
vn 0.214395700 0.506931847 0.834897950
vn 0.135942738 0.889999732 0.435224137
vn 0.064601235 0.954708411 -0.290445401
vn 0.067603108 0.388162372 -0.919108151
vn -0.238687705 0.579072352 -0.779553328
vn -0.897325329 -0.441369748 0.000000000
vn -0.884917483 -0.465140350 -0.023780333
vn -0.887880877 -0.459707978 -0.018333672
vn 0.178979304 0.942018332 -0.283844800
vn -0.394036403 0.801704591 -0.449449733
vn -0.868257133 -0.493312338 -0.052654430
vn 0.361722542 -0.830902321 0.422797983
vn 0.897368743 0.354029034 0.263425098
vn -0.179204764 0.842046644 0.508766254
vn -0.379734768 0.693263807 0.612524939
vn -0.101216872 0.875339336 0.472796141
# 298 vertex normals

vt 0.7386 0.0020 0.0000
vt 0.3669 0.6213 0.0000
vt 0.3594 0.7717 0.0000
vt 0.3324 0.7817 0.0000
vt 0.2858 0.1298 0.0000
vt 0.3210 0.1529 0.0000
vt 0.3200 0.2577 0.0000
vt 0.2621 0.2573 0.0000
vt 0.2699 0.1663 0.0000
vt 0.0228 0.5442 0.0000
vt 0.0677 0.2765 0.0000
vt 0.1249 0.2837 0.0000
vt 0.0801 0.5583 0.0000
vt 0.1751 0.2639 0.0000
vt 0.1245 0.5692 0.0000
vt 0.8006 0.3877 0.0000
vt 0.8446 0.3877 0.0000
vt 0.8486 0.4977 0.0000
vt 0.8005 0.4949 0.0000
vt 0.7386 0.0662 0.0000
vt 0.4992 0.0020 0.0000
vt 0.3856 0.0193 0.0000
vt 0.4992 0.0464 0.0000
vt 0.3904 0.0597 0.0000
vt 0.4992 0.0734 0.0000
vt 0.3920 0.0820 0.0000
vt 0.4992 0.1514 0.0000
vt 0.3379 0.1050 0.0000
vt 0.4992 0.2177 0.0000
vt 0.4992 0.4269 0.0000
vt 0.3562 0.4297 0.0000
vt 0.4992 0.5229 0.0000
vt 0.3694 0.5212 0.0000
vt 0.4992 0.6242 0.0000
vt 0.4992 0.7752 0.0000
vt 0.7495 0.2729 0.0000
vt 0.8977 0.2766 0.0000
vt 0.8912 0.3077 0.0000
vt 0.8994 0.1949 0.0000
vt 0.9177 0.1950 0.0000
vt 0.9242 0.2213 0.0000
vt 0.9039 0.2222 0.0000
vt 0.9024 0.1353 0.0000
vt 0.1689 0.9741 0.0000
vt 0.9480 0.1560 0.0000
vt 0.1328 0.9807 0.0000
vt 0.9091 0.1183 0.0000
vt 0.0934 0.9868 0.0000
vt 0.9609 0.1217 0.0000
vt 0.9076 0.0813 0.0000
vt 0.0096 0.9833 0.0000
vt 0.9602 0.0816 0.0000
vt 0.2126 0.2599 0.0000
vt 0.2098 0.2073 0.0000
vt 0.1934 0.5859 0.0000
vt 0.4992 0.8831 0.0000
vt 0.3531 0.8765 0.0000
vt 0.2066 0.8350 0.0000
vt 0.2060 0.9073 0.0000
vt 0.1944 0.9067 0.0000
vt 0.2387 0.8227 0.0000
vt 0.2678 0.8825 0.0000
vt 0.2888 0.9319 0.0000
vt 0.3157 0.9070 0.0000
vt 0.3165 0.8457 0.0000
vt 0.0958 0.9058 0.0000
vt 0.1174 0.8442 0.0000
vt 0.0020 0.9478 0.0000
vt 0.0514 0.9394 0.0000
vt 0.8580 0.5735 0.0000
vt 0.8011 0.5659 0.0000
vt 0.8788 0.6495 0.0000
vt 0.3149 0.0497 0.0000
vt 0.2682 0.1040 0.0000
vt 0.3259 0.0829 0.0000
vt 0.8078 0.6697 0.0000
vt 0.5801 0.0662 0.0000
vt 0.5206 0.0662 0.0000
vt 0.7527 0.6658 0.0000
vt 0.7546 0.6153 0.0000
vt 0.8039 0.6209 0.0000
vt 0.7538 0.5605 0.0000
vt 0.7534 0.4887 0.0000
vt 0.7535 0.3877 0.0000
vt 0.2065 0.1418 0.0000
vt 0.2598 0.1312 0.0000
vt 0.2507 0.1398 0.0000
vt 0.3463 0.6177 0.0000
vt 0.3493 0.5305 0.0000
vt 0.3377 0.4292 0.0000
vt 0.2312 0.5946 0.0000
vt 0.1072 0.7901 0.0000
vt 0.0636 0.7482 0.0000
vt 0.0047 0.7374 0.0000
vt 0.9049 0.0652 0.0000
vt 0.9260 0.3974 0.0000
vt 0.9381 0.3538 0.0000
vt 0.9878 0.3538 0.0000
vt 0.9878 0.3974 0.0000
vt 0.9394 0.6278 0.0000
vt 0.9260 0.5861 0.0000
vt 0.9878 0.5861 0.0000
vt 0.9878 0.6278 0.0000
vt 0.9260 0.5403 0.0000
vt 0.9878 0.5403 0.0000
vt 0.9260 0.4909 0.0000
vt 0.9878 0.4909 0.0000
vt 0.9260 0.4399 0.0000
vt 0.9878 0.4399 0.0000
vt 0.1695 0.0154 0.0000
vt 0.1631 0.0607 0.0000
vt 0.1307 0.0961 0.0000
vt 0.0882 0.1059 0.0000
vt 0.0398 0.0890 0.0000
vt 0.0172 0.0523 0.0000
vt 0.0159 0.0135 0.0000
vt 0.0420 0.7723 0.0000
vt 0.0775 0.7961 0.0000
vt 0.0927 0.8397 0.0000
vt 0.0783 0.8851 0.0000
vt 0.0453 0.9071 0.0000
vt 0.0048 0.9102 0.0000
vt 0.0031 0.7726 0.0000
vt 0.5388 0.0373 0.0000
vt 0.5792 0.0131 0.0000
vt 0.7386 0.2502 0.0000
vt 0.7386 0.6967 0.0000
vt 0.5801 0.6967 0.0000
vt 0.5801 0.2502 0.0000
vt 0.7386 0.8787 0.0000
vt 0.7386 0.9838 0.0000
vt 0.6403 0.9751 0.0000
vt 0.5709 0.9644 0.0000
vt 0.5337 0.9262 0.0000
vt 0.5204 0.8787 0.0000
vt 0.5801 0.8787 0.0000
vt 0.5188 0.6967 0.0000
vt 0.5188 0.4343 0.0000
vt 0.5188 0.2502 0.0000
vt 0.7622 0.9262 0.0000
vt 0.8167 0.9262 0.0000
vt 0.8104 0.9639 0.0000
vt 0.7622 0.9639 0.0000
vt 0.7622 0.8844 0.0000
vt 0.8240 0.8844 0.0000
vt 0.7622 0.8347 0.0000
vt 0.8240 0.8347 0.0000
vt 0.7622 0.7924 0.0000
vt 0.8240 0.7924 0.0000
vt 0.7622 0.7459 0.0000
vt 0.8240 0.7459 0.0000
vt 0.7622 0.7015 0.0000
vt 0.8119 0.7015 0.0000
vt 0.1400 0.1980 0.0000
vt 0.1483 0.2066 0.0000
vt 0.1458 0.2247 0.0000
vt 0.1225 0.2298 0.0000
vt 0.1089 0.2260 0.0000
vt 0.1042 0.2172 0.0000
vt 0.1103 0.2104 0.0000
vt 0.1768 0.2200 0.0000
vt 0.1579 0.2453 0.0000
vt 0.1195 0.2482 0.0000
vt 0.0975 0.2394 0.0000
vt 0.0865 0.2213 0.0000
vt 0.0938 0.2039 0.0000
vt 0.1244 0.1734 0.0000
vt 0.1270 0.1701 0.0000
vt 0.1629 0.1738 0.0000
vt 0.1796 0.2162 0.0000
vt 0.1641 0.1840 0.0000
vt 0.0641 0.1968 0.0000
vt 0.0633 0.2057 0.0000
vt 0.0323 0.2310 0.0000
vt 0.0183 0.2326 0.0000
vt 0.0104 0.2187 0.0000
vt 0.0162 0.1995 0.0000
vt 0.0433 0.1720 0.0000
vt 0.0682 0.1987 0.0000
vt 0.0686 0.2082 0.0000
vt 0.9089 0.0079 0.0000
vt 0.9570 0.0020 0.0000
vt 0.9508 0.2041 0.0000
vt 0.9194 0.2765 0.0000
vt 0.9096 0.3103 0.0000
vt 0.2236 0.9140 0.0000
vt 0.2548 0.9530 0.0000
vt 0.2679 0.9534 0.0000
vt 0.7495 0.1320 0.0000
vt 0.7495 0.1153 0.0000
vt 0.7495 0.0786 0.0000
vt 0.7495 0.0587 0.0000
vt 0.7495 0.0062 0.0000
vt 0.9932 0.2128 0.0000
vt 0.9028 0.2456 0.0000
vt 0.9808 0.2275 0.0000
vt 0.9343 0.2358 0.0000
vt 0.8935 0.3521 0.0000
vt 0.7495 0.3565 0.0000
vt 0.9235 0.2465 0.0000
vt 0.7495 0.2469 0.0000
vt 0.7495 0.2230 0.0000
vt 0.7495 0.1955 0.0000
vt 0.8589 0.3877 0.0000
vt 0.8678 0.5009 0.0000
vt 0.8738 0.5759 0.0000
vt 0.8889 0.6420 0.0000
vt 0.8593 0.6945 0.0000
vt 0.8999 0.6645 0.0000
vt 0.8959 0.6742 0.0000
vt 0.3669 0.6213 0.0000
vt 0.3594 0.7717 0.0000
vt 0.3324 0.7817 0.0000
vt 0.2858 0.1298 0.0000
vt 0.3210 0.1529 0.0000
vt 0.3200 0.2577 0.0000
vt 0.2621 0.2573 0.0000
vt 0.2699 0.1663 0.0000
vt 0.0228 0.5442 0.0000
vt 0.0677 0.2765 0.0000
vt 0.1249 0.2837 0.0000
vt 0.0801 0.5583 0.0000
vt 0.1751 0.2639 0.0000
vt 0.1245 0.5692 0.0000
vt 0.7386 0.0020 0.0000
vt 0.7386 0.0662 0.0000
vt 0.5801 0.0662 0.0000
vt 0.5206 0.0662 0.0000
vt 0.5388 0.0373 0.0000
vt 0.5792 0.0131 0.0000
vt 0.7386 0.2502 0.0000
vt 0.7386 0.6967 0.0000
vt 0.5801 0.6967 0.0000
vt 0.5801 0.2502 0.0000
vt 0.7386 0.8787 0.0000
vt 0.7386 0.9838 0.0000
vt 0.6403 0.9751 0.0000
vt 0.5709 0.9644 0.0000
vt 0.5337 0.9262 0.0000
vt 0.5204 0.8787 0.0000
vt 0.5801 0.8787 0.0000
vt 0.8006 0.3877 0.0000
vt 0.8446 0.3877 0.0000
vt 0.8486 0.4977 0.0000
vt 0.8005 0.4949 0.0000
vt 0.8589 0.3877 0.0000
vt 0.8678 0.5009 0.0000
vt 0.4992 0.0020 0.0000
vt 0.4992 0.0464 0.0000
vt 0.3904 0.0597 0.0000
vt 0.3856 0.0193 0.0000
vt 0.4992 0.0734 0.0000
vt 0.3920 0.0820 0.0000
vt 0.4992 0.1514 0.0000
vt 0.3379 0.1050 0.0000
vt 0.4992 0.2177 0.0000
vt 0.4992 0.4269 0.0000
vt 0.3562 0.4297 0.0000
vt 0.4992 0.5229 0.0000
vt 0.3694 0.5212 0.0000
vt 0.4992 0.6242 0.0000
vt 0.4992 0.7752 0.0000
vt 0.7495 0.2729 0.0000
vt 0.8977 0.2766 0.0000
vt 0.8912 0.3077 0.0000
vt 0.8994 0.1949 0.0000
vt 0.9177 0.1950 0.0000
vt 0.9242 0.2213 0.0000
vt 0.9039 0.2222 0.0000
vt 0.9024 0.1353 0.0000
vt 0.9480 0.1560 0.0000
vt 0.9091 0.1183 0.0000
vt 0.9609 0.1217 0.0000
vt 0.9076 0.0813 0.0000
vt 0.9602 0.0816 0.0000
vt 0.9049 0.0652 0.0000
vt 0.9089 0.0079 0.0000
vt 0.9570 0.0020 0.0000
vt 0.9508 0.2041 0.0000
vt 0.2126 0.2599 0.0000
vt 0.2098 0.2073 0.0000
vt 0.1934 0.5859 0.0000
vt 0.4992 0.8831 0.0000
vt 0.3531 0.8765 0.0000
vt 0.2066 0.8350 0.0000
vt 0.2060 0.9073 0.0000
vt 0.1944 0.9067 0.0000
vt 0.2387 0.8227 0.0000
vt 0.2678 0.8825 0.0000
vt 0.9194 0.2765 0.0000
vt 0.9096 0.3103 0.0000
vt 0.3165 0.8457 0.0000
vt 0.1689 0.9741 0.0000
vt 0.1328 0.9807 0.0000
vt 0.0934 0.9868 0.0000
vt 0.0958 0.9058 0.0000
vt 0.1174 0.8442 0.0000
vt 0.0096 0.9833 0.0000
vt 0.0020 0.9478 0.0000
vt 0.0514 0.9394 0.0000
vt 0.8580 0.5735 0.0000
vt 0.8011 0.5659 0.0000
vt 0.8788 0.6495 0.0000
vt 0.8738 0.5759 0.0000
vt 0.8889 0.6420 0.0000
vt 0.2682 0.1040 0.0000
vt 0.3149 0.0497 0.0000
vt 0.3259 0.0829 0.0000
vt 0.8078 0.6697 0.0000
vt 0.7527 0.6658 0.0000
vt 0.7546 0.6153 0.0000
vt 0.8039 0.6209 0.0000
vt 0.7538 0.5605 0.0000
vt 0.7534 0.4887 0.0000
vt 0.7535 0.3877 0.0000
vt 0.8593 0.6945 0.0000
vt 0.2598 0.1312 0.0000
vt 0.2065 0.1418 0.0000
vt 0.2507 0.1398 0.0000
vt 0.8999 0.6645 0.0000
vt 0.8959 0.6742 0.0000
vt 0.9260 0.3974 0.0000
vt 0.9381 0.3538 0.0000
vt 0.9878 0.3538 0.0000
vt 0.9878 0.3974 0.0000
vt 0.9394 0.6278 0.0000
vt 0.9260 0.5861 0.0000
vt 0.9878 0.5861 0.0000
vt 0.9878 0.6278 0.0000
vt 0.9260 0.5403 0.0000
vt 0.9878 0.5403 0.0000
vt 0.9260 0.4909 0.0000
vt 0.9878 0.4909 0.0000
vt 0.9260 0.4399 0.0000
vt 0.9878 0.4399 0.0000
vt 0.3463 0.6177 0.0000
vt 0.3493 0.5305 0.0000
vt 0.3377 0.4292 0.0000
vt 0.2312 0.5946 0.0000
vt 0.1072 0.7901 0.0000
vt 0.0636 0.7482 0.0000
vt 0.0047 0.7374 0.0000
vt 0.7495 0.1320 0.0000
vt 0.7495 0.1153 0.0000
vt 0.7495 0.0786 0.0000
vt 0.7495 0.0587 0.0000
vt 0.7495 0.0062 0.0000
vt 0.9932 0.2128 0.0000
vt 0.9028 0.2456 0.0000
vt 0.7622 0.9262 0.0000
vt 0.8167 0.9262 0.0000
vt 0.8104 0.9639 0.0000
vt 0.7622 0.9639 0.0000
vt 0.7622 0.8844 0.0000
vt 0.8240 0.8844 0.0000
vt 0.7622 0.8347 0.0000
vt 0.8240 0.8347 0.0000
vt 0.7622 0.7924 0.0000
vt 0.8240 0.7924 0.0000
vt 0.7622 0.7459 0.0000
vt 0.8240 0.7459 0.0000
vt 0.7622 0.7015 0.0000
vt 0.8119 0.7015 0.0000
vt 0.5188 0.6967 0.0000
vt 0.5188 0.4343 0.0000
vt 0.5188 0.2502 0.0000
vt 0.1695 0.0154 0.0000
vt 0.1631 0.0607 0.0000
vt 0.1307 0.0961 0.0000
vt 0.0882 0.1059 0.0000
vt 0.0398 0.0890 0.0000
vt 0.0172 0.0523 0.0000
vt 0.0159 0.0135 0.0000
vt 0.0420 0.7723 0.0000
vt 0.0775 0.7961 0.0000
vt 0.0927 0.8397 0.0000
vt 0.0783 0.8851 0.0000
vt 0.0453 0.9071 0.0000
vt 0.0048 0.9102 0.0000
vt 0.0031 0.7726 0.0000
vt 0.1400 0.1980 0.0000
vt 0.1483 0.2066 0.0000
vt 0.1458 0.2247 0.0000
vt 0.1225 0.2298 0.0000
vt 0.1089 0.2260 0.0000
vt 0.1042 0.2172 0.0000
vt 0.1103 0.2104 0.0000
vt 0.1768 0.2200 0.0000
vt 0.1579 0.2453 0.0000
vt 0.1195 0.2482 0.0000
vt 0.0975 0.2394 0.0000
vt 0.0865 0.2213 0.0000
vt 0.0938 0.2039 0.0000
vt 0.1244 0.1734 0.0000
vt 0.0641 0.1968 0.0000
vt 0.0633 0.2057 0.0000
vt 0.0323 0.2310 0.0000
vt 0.0183 0.2326 0.0000
vt 0.0104 0.2187 0.0000
vt 0.0162 0.1995 0.0000
vt 0.0433 0.1720 0.0000
vt 0.1270 0.1701 0.0000
vt 0.1629 0.1738 0.0000
vt 0.0682 0.1987 0.0000
vt 0.0686 0.2082 0.0000
vt 0.1641 0.1840 0.0000
vt 0.1796 0.2162 0.0000
vt 0.9343 0.2358 0.0000
vt 0.2679 0.9534 0.0000
vt 0.2236 0.9140 0.0000
vt 0.2888 0.9319 0.0000
vt 0.8935 0.3521 0.0000
vt 0.3157 0.9070 0.0000
vt 0.7495 0.3565 0.0000
vt 0.9235 0.2465 0.0000
vt 0.7495 0.2469 0.0000
vt 0.7495 0.2230 0.0000
vt 0.7495 0.1955 0.0000
vt 0.2548 0.9530 0.0000
vt 0.9808 0.2275 0.0000
# 420 texture coords

g Hatchback
usemtl Hatchback
s 1
f 1/2/1 2/3/2 3/4/3 
f 4/6/4 5/7/5 6/8/6 
f 4/6/4 6/8/6 7/9/7 
f 8/5/8 4/6/4 7/9/7 
f 9/10/9 10/11/10 11/12/11 
f 11/12/11 12/13/12 9/10/9 
f 11/12/11 13/14/13 14/15/14 
f 14/15/14 12/13/12 11/12/11 
s 8
f 15/1/15 16/20/16 17/77/17 
f 15/1/15 17/77/17 18/78/18 
f 18/78/18 19/124/19 20/125/20 
f 15/1/15 18/78/18 20/125/20 
f 21/127/21 22/128/22 23/129/23 
f 23/129/23 24/126/24 21/127/21 
f 25/131/25 26/132/26 27/133/27 
f 25/131/25 27/133/27 28/134/28 
f 29/130/29 25/131/25 28/134/28 
f 28/134/28 30/135/30 31/136/31 
f 29/130/29 28/134/28 31/136/31 
s 1
f 32/17/32 33/18/33 34/19/34 
f 34/19/34 35/16/35 32/17/32 
f 32/17/32 36/204/36 37/205/37 
f 37/205/37 33/18/33 32/17/32 
f 36/21/36 38/23/38 39/24/39 
f 39/24/39 37/22/37 36/21/36 
f 38/23/38 40/25/40 41/26/41 
f 41/26/41 39/24/39 38/23/38 
f 40/25/40 42/27/42 4/6/4 
f 4/6/4 43/28/43 41/26/41 
f 40/25/40 4/6/4 41/26/41 
f 42/27/42 44/29/44 5/7/5 
f 5/7/5 4/6/4 42/27/42 
f 44/29/44 45/30/45 46/31/46 
f 46/31/46 5/7/5 44/29/44 
f 45/30/45 47/32/47 48/33/48 
f 48/33/48 46/31/46 45/30/45 
f 47/32/47 49/34/49 1/2/1 
f 1/2/1 48/33/48 47/32/47 
f 50/35/50 2/3/2 1/2/1 
f 1/2/1 49/34/49 50/35/50 
f 51/36/51 52/37/52 53/38/53 
f 54/40/54 55/41/55 56/42/56 
f 56/42/56 57/39/57 54/40/54 
f 58/43/58 59/45/59 54/40/54 
f 60/47/60 61/49/61 59/45/59 
f 59/45/59 58/43/58 60/47/60 
f 62/52/62 61/49/61 60/47/60 
f 60/47/60 63/50/63 62/52/62 
f 64/95/64 62/52/62 63/50/63 
f 19/182/65 62/52/62 64/95/64 
f 64/95/64 20/181/66 19/182/65 
f 54/40/54 59/45/59 65/183/67 
f 66/53/68 13/14/13 67/54/69 
f 14/15/14 13/14/13 66/53/68 
f 66/53/68 68/55/70 14/15/14 
f 69/56/71 70/57/72 2/3/2 
f 2/3/2 50/35/50 69/56/71 
f 55/41/55 54/40/54 65/183/67 
f 6/8/6 66/53/68 7/9/7 
f 71/58/73 72/59/74 73/60/75 
f 71/58/73 74/61/76 75/62/77 
f 75/62/77 72/59/74 71/58/73 
f 52/37/52 76/184/78 77/185/79 
f 77/185/79 53/38/53 52/37/52 
f 78/65/80 75/62/77 74/61/76 
f 74/61/76 3/4/3 78/65/80 
f 6/8/6 5/7/5 46/31/46 
f 2/3/2 70/57/72 78/65/80 
f 78/65/80 3/4/3 2/3/2 
f 59/44/59 61/46/61 73/60/75 
f 73/60/75 72/59/74 59/44/59 
f 61/46/61 62/48/62 79/66/81 
f 73/60/75 79/66/81 80/67/82 
f 80/67/82 71/58/73 73/60/75 
f 19/51/65 18/68/83 81/69/84 
f 81/69/84 62/48/62 19/51/65 
f 62/48/62 81/69/84 79/66/81 
f 79/66/81 73/60/75 61/46/61 
f 33/18/33 82/70/85 83/71/86 
f 83/71/86 34/19/34 33/18/33 
f 84/72/87 82/70/85 85/206/88 
f 85/206/88 86/207/89 84/72/87 
f 86/74/89 85/73/88 87/75/90 
f 87/75/90 8/5/8 86/74/89 
f 8/5/8 87/75/90 43/28/43 
f 43/28/43 4/6/4 8/5/8 
f 30/79/91 28/80/92 88/81/93 
f 88/81/93 89/76/94 30/79/91 
f 88/81/93 28/80/92 27/82/95 
f 27/82/95 83/71/86 88/81/93 
f 26/83/96 25/84/97 35/16/35 
f 35/16/35 34/19/34 26/83/96 
f 89/76/94 88/81/93 84/72/87 
f 84/72/87 90/208/98 89/76/94 
f 82/70/85 84/72/87 88/81/93 
f 82/70/85 33/18/33 37/205/37 
f 37/205/37 85/206/88 82/70/85 
f 85/73/88 37/22/37 39/24/39 
f 39/24/39 87/75/90 85/73/88 
f 87/75/90 39/24/39 41/26/41 
f 41/26/41 43/28/43 87/75/90 
f 26/83/96 34/19/34 83/71/86 
f 83/71/86 27/82/95 26/83/96 
f 8/5/8 7/9/7 91/86/99 
f 67/54/69 90/85/98 92/87/100 
f 91/86/99 86/74/89 8/5/8 
f 91/209/99 92/210/100 84/72/87 
f 84/72/87 86/207/89 91/209/99 
f 92/87/100 91/86/99 7/9/7 
f 67/54/69 92/87/100 7/9/7 
f 7/9/7 66/53/68 67/54/69 
s 2
f 10/97/101 22/98/101 93/99/102 
f 93/99/102 11/96/103 10/97/101 
f 30/100/104 89/101/105 94/102/106 
f 94/102/106 31/103/104 30/100/104 
f 90/104/107 95/105/107 94/102/106 
f 94/102/106 89/101/105 90/104/107 
f 67/106/108 96/107/109 95/105/107 
f 95/105/107 90/104/107 67/106/108 
f 13/108/110 97/109/110 96/107/109 
f 96/107/109 67/106/108 13/108/110 
f 11/96/103 93/99/102 97/109/110 
f 97/109/110 13/108/110 11/96/103 
s 1
f 1/2/1 3/4/3 98/88/111 
f 48/33/48 1/2/1 98/88/111 
f 98/88/111 99/89/112 48/33/48 
f 48/33/48 99/89/112 100/90/113 
f 100/90/113 46/31/46 48/33/48 
f 6/8/6 101/91/114 68/55/70 
f 68/55/70 66/53/68 6/8/6 
f 74/61/76 71/58/73 68/55/70 
f 68/55/70 101/91/114 74/61/76 
f 71/58/73 80/67/82 102/92/115 
f 71/58/73 102/92/115 14/15/14 
f 68/55/70 71/58/73 14/15/14 
f 14/15/14 102/92/115 103/93/116 
f 103/93/116 12/13/12 14/15/14 
f 12/13/12 103/93/116 104/94/117 
f 104/94/117 9/10/9 12/13/12 
f 54/40/54 57/39/57 58/43/58 
f 105/189/118 106/190/119 60/47/60 
f 60/47/60 58/43/58 105/189/118 
f 106/190/119 107/191/120 63/50/63 
f 63/50/63 60/47/60 106/190/119 
f 107/191/120 108/192/121 64/95/64 
f 64/95/64 63/50/63 107/191/120 
f 64/95/64 108/192/121 15/193/122 
f 15/193/122 20/181/66 64/95/64 
f 59/45/59 72/194/74 65/183/67 
f 55/41/55 109/195/123 56/42/56 
f 88/81/93 83/71/86 82/70/85 
f 3/4/3 74/61/76 101/91/114 
f 101/91/114 98/88/111 3/4/3 
f 98/88/111 101/91/114 99/89/112 
f 6/8/6 46/31/46 100/90/113 
f 100/90/113 101/91/114 6/8/6 
f 100/90/113 99/89/112 101/91/114 
s 2
f 110/140/124 81/141/125 18/142/126 
f 18/142/126 17/143/126 110/140/124 
f 111/144/127 79/145/128 81/141/125 
f 81/141/125 110/140/124 111/144/127 
f 80/147/129 79/145/128 111/144/127 
f 111/144/127 112/146/129 80/147/129 
f 102/149/130 80/147/129 112/146/129 
f 112/146/129 113/148/130 102/149/130 
f 103/151/131 102/149/130 113/148/130 
f 113/148/130 114/150/132 103/151/131 
f 104/153/133 103/151/131 114/150/132 
f 114/150/132 23/152/133 104/153/133 
s 8
f 22/128/22 10/137/134 9/138/134 
f 22/128/22 9/138/134 104/139/134 
f 22/128/22 104/139/134 23/129/23 
f 23/129/23 17/77/17 16/20/16 
f 16/20/16 24/126/24 23/129/23 
f 31/136/31 22/128/22 21/127/21 
f 21/127/21 29/130/29 31/136/31 
s 4
f 114/111/135 113/112/135 112/113/135 
f 112/113/135 111/114/13 110/115/136 
f 112/113/135 110/115/136 17/116/136 
f 114/111/135 112/113/135 17/116/136 
f 23/110/135 114/111/135 17/116/136 
f 95/118/136 96/119/136 97/120/135 
f 97/120/135 93/121/13 22/122/135 
f 97/120/135 22/122/135 31/123/135 
f 95/118/136 97/120/135 31/123/135 
f 94/117/135 95/118/136 31/123/135 
s 1
f 90/208/98 84/72/87 92/210/100 
f 115/155/137 116/156/138 117/157/139 
f 118/158/140 119/159/141 120/160/142 
f 117/157/139 118/158/140 120/160/142 
f 115/155/137 117/157/139 120/160/142 
f 121/154/143 115/155/137 120/160/142 
f 122/161/144 123/162/145 116/156/138 
f 116/156/138 115/155/137 122/161/144 
f 123/162/145 124/163/146 117/157/139 
f 117/157/139 116/156/138 123/162/145 
f 124/163/146 125/164/147 118/158/140 
f 118/158/140 117/157/139 124/163/146 
f 125/164/147 126/165/148 119/159/141 
f 119/159/141 118/158/140 125/164/147 
f 126/165/148 127/166/149 120/160/142 
f 120/160/142 119/159/141 126/165/148 
f 127/166/149 128/167/150 121/154/143 
f 121/154/143 120/160/142 127/166/149 
s 2
f 127/174/151 126/175/151 125/176/151 
f 127/174/151 125/176/151 124/177/151 
f 127/174/151 124/177/151 123/178/151 
f 128/173/152 127/174/151 123/178/151 
f 122/172/153 128/173/152 123/178/151 
s 1
f 121/154/143 128/167/150 129/168/154 
f 129/168/154 130/169/155 121/154/143 
s 2
f 128/173/152 122/172/153 131/179/156 
f 131/179/156 129/180/156 128/173/152 
s 1
f 122/161/144 115/155/137 132/171/157 
f 132/171/157 131/170/158 122/161/144 
f 115/155/137 121/154/143 130/169/155 
f 130/169/155 132/171/157 115/155/137 
f 65/183/67 133/197/159 55/41/55 
f 134/188/160 135/186/161 76/63/78 
f 76/63/78 135/186/161 75/62/77 
f 77/185/79 70/198/72 53/38/53 
f 77/64/79 76/63/78 75/62/77 
f 75/62/77 78/65/80 77/64/79 
f 53/38/53 70/198/72 69/199/71 
f 53/38/53 69/199/71 51/36/51 
f 134/200/160 109/195/123 55/41/55 
f 133/197/159 134/200/160 55/41/55 
f 76/184/78 52/37/52 109/195/123 
f 109/195/123 134/200/160 76/184/78 
f 52/37/52 51/36/51 136/201/162 
f 136/201/162 109/195/123 52/37/52 
f 109/195/123 136/201/162 137/202/163 
f 137/202/163 56/42/56 109/195/123 
f 137/202/163 138/203/164 57/39/57 
f 57/39/57 56/42/56 137/202/163 
f 138/203/164 105/189/118 58/43/58 
f 58/43/58 57/39/57 138/203/164 
f 77/64/79 78/65/80 70/57/72 
f 135/186/161 72/59/74 75/62/77 
f 134/188/160 133/187/159 135/186/161 
f 65/183/67 135/196/161 133/197/159 
f 65/183/67 72/194/74 135/196/161 
f 139/211/165 140/213/166 141/212/167 
f 142/217/168 143/216/169 144/215/170 
f 145/218/171 142/217/168 144/215/170 
f 146/214/172 145/218/171 144/215/170 
f 147/219/173 148/222/174 149/221/175 
f 149/221/175 150/220/176 147/219/173 
f 149/221/175 148/222/174 151/224/177 
f 151/224/177 152/223/178 149/221/175 
s 8
f 153/230/179 154/229/180 155/228/181 
f 15/225/15 153/230/179 155/228/181 
f 15/225/15 155/228/181 156/227/182 
f 15/225/15 156/227/182 16/226/16 
f 21/232/21 24/231/24 157/234/183 
f 157/234/183 158/233/184 21/232/21 
f 159/241/185 160/240/186 161/239/187 
f 29/235/29 159/241/185 161/239/187 
f 162/238/188 163/237/189 25/236/25 
f 161/239/187 162/238/188 25/236/25 
f 29/235/29 161/239/187 25/236/25 
s 1
f 32/243/32 35/242/35 164/245/190 
f 164/245/190 165/244/191 32/243/32 
f 32/243/32 165/244/191 166/247/192 
f 166/247/192 36/246/36 32/243/32 
f 36/248/36 166/251/192 167/250/193 
f 167/250/193 38/249/38 36/248/36 
f 38/249/38 167/250/193 168/253/194 
f 168/253/194 40/252/40 38/249/38 
f 168/253/194 169/255/195 144/215/170 
f 40/252/40 168/253/194 144/215/170 
f 40/252/40 144/215/170 42/254/42 
f 42/254/42 144/215/170 143/216/169 
f 143/216/169 44/256/44 42/254/42 
f 44/256/44 143/216/169 170/258/196 
f 170/258/196 45/257/45 44/256/44 
f 45/257/45 170/258/196 171/260/197 
f 171/260/197 47/259/47 45/257/45 
f 47/259/47 171/260/197 139/211/165 
f 139/211/165 49/261/49 47/259/47 
f 50/262/50 49/261/49 139/211/165 
f 139/211/165 141/212/167 50/262/50 
f 51/263/51 172/265/198 173/264/199 
f 174/267/200 175/266/201 176/269/202 
f 176/269/202 177/268/203 174/267/200 
f 178/270/204 174/267/200 179/271/205 
f 180/272/206 178/270/204 179/271/205 
f 179/271/205 181/273/207 180/272/206 
f 182/275/208 183/274/209 180/272/206 
f 180/272/206 181/273/207 182/275/208 
f 184/276/210 183/274/209 182/275/208 
f 154/278/211 153/277/212 184/276/210 
f 184/276/210 182/275/208 154/278/211 
f 174/267/200 185/279/213 179/271/205 
f 186/280/214 187/281/215 152/223/178 
f 151/224/177 188/282/216 186/280/214 
f 186/280/214 152/223/178 151/224/177 
f 69/283/71 50/262/50 141/212/167 
f 141/212/167 189/284/217 69/283/71 
f 177/268/203 185/279/213 174/267/200 
f 142/217/168 145/218/171 186/280/214 
f 190/285/218 191/287/219 192/286/220 
f 190/285/218 192/286/220 193/289/221 
f 193/289/221 194/288/222 190/285/218 
f 173/264/199 172/265/198 195/291/223 
f 195/291/223 196/290/224 173/264/199 
f 197/292/225 140/213/166 194/288/222 
f 194/288/222 193/289/221 197/292/225 
f 142/217/168 170/258/196 143/216/169 
f 141/212/167 140/213/166 197/292/225 
f 197/292/225 189/284/217 141/212/167 
f 179/293/205 192/286/220 191/287/219 
f 191/287/219 181/294/207 179/293/205 
f 181/294/207 198/296/226 182/295/208 
f 191/287/219 190/285/218 199/297/227 
f 199/297/227 198/296/226 191/287/219 
f 154/298/211 182/295/208 200/300/228 
f 200/300/228 155/299/229 154/298/211 
f 182/295/208 198/296/226 200/300/228 
f 198/296/226 181/294/207 191/287/219 
f 165/244/191 164/245/190 201/302/230 
f 201/302/230 202/301/231 165/244/191 
f 203/303/232 204/305/233 205/304/234 
f 205/304/234 202/301/231 203/303/232 
f 204/306/233 146/214/172 206/308/235 
f 206/308/235 205/307/234 204/306/233 
f 146/214/172 144/215/170 169/255/195 
f 169/255/195 206/308/235 146/214/172 
f 160/310/236 207/309/237 208/312/238 
f 208/312/238 161/311/239 160/310/236 
f 208/312/238 201/302/230 162/313/240 
f 162/313/240 161/311/239 208/312/238 
f 163/314/241 164/245/190 35/242/35 
f 35/242/35 25/315/97 163/314/241 
f 207/309/237 209/316/242 203/303/232 
f 203/303/232 208/312/238 207/309/237 
f 202/301/231 208/312/238 203/303/232 
f 202/301/231 205/304/234 166/247/192 
f 166/247/192 165/244/191 202/301/231 
f 205/307/234 206/308/235 167/250/193 
f 167/250/193 166/251/192 205/307/234 
f 206/308/235 169/255/195 168/253/194 
f 168/253/194 167/250/193 206/308/235 
f 163/314/241 162/313/240 201/302/230 
f 201/302/230 164/245/190 163/314/241 
f 146/214/172 210/317/243 145/218/171 
f 187/281/215 211/319/244 209/318/242 
f 210/317/243 146/214/172 204/306/233 
f 210/320/243 204/305/233 203/303/232 
f 203/303/232 211/321/244 210/320/243 
f 211/319/244 145/218/171 210/317/243 
f 187/281/215 186/280/214 145/218/171 
f 145/218/171 211/319/244 187/281/215 
s 2
f 150/323/245 149/322/246 212/325/247 
f 212/325/247 158/324/245 150/323/245 
f 160/326/248 159/329/248 213/328/249 
f 213/328/249 207/327/250 160/326/248 
f 209/330/251 207/327/250 213/328/249 
f 213/328/249 214/331/251 209/330/251 
f 187/332/109 209/330/251 214/331/251 
f 214/331/251 215/333/108 187/332/109 
f 152/334/252 187/332/109 215/333/108 
f 215/333/108 216/335/252 152/334/252 
f 149/322/246 152/334/252 216/335/252 
f 216/335/252 212/325/247 149/322/246 
s 1
f 139/211/165 217/336/253 140/213/166 
f 171/260/197 218/337/254 217/336/253 
f 217/336/253 139/211/165 171/260/197 
f 171/260/197 170/258/196 219/338/255 
f 219/338/255 218/337/254 171/260/197 
f 142/217/168 186/280/214 188/282/216 
f 188/282/216 220/339/256 142/217/168 
f 194/288/222 220/339/256 188/282/216 
f 188/282/216 190/285/218 194/288/222 
f 221/340/257 199/297/227 190/285/218 
f 151/224/177 221/340/257 190/285/218 
f 188/282/216 151/224/177 190/285/218 
f 151/224/177 148/222/174 222/341/258 
f 222/341/258 221/340/257 151/224/177 
f 148/222/174 147/219/173 223/342/259 
f 223/342/259 222/341/258 148/222/174 
f 174/267/200 178/270/204 175/266/201 
f 105/343/118 178/270/204 180/272/206 
f 180/272/206 106/344/119 105/343/118 
f 106/344/119 180/272/206 183/274/209 
f 183/274/209 107/345/120 106/344/119 
f 107/345/120 183/274/209 184/276/210 
f 184/276/210 108/346/121 107/345/120 
f 184/276/210 153/277/212 15/347/122 
f 15/347/122 108/346/121 184/276/210 
f 179/271/205 185/279/213 192/348/220 
f 177/268/203 176/269/202 224/349/260 
f 208/312/238 202/301/231 201/302/230 
f 140/213/166 217/336/253 220/339/256 
f 220/339/256 194/288/222 140/213/166 
f 217/336/253 218/337/254 220/339/256 
f 142/217/168 219/338/255 170/258/196 
f 219/338/255 142/217/168 220/339/256 
f 219/338/255 220/339/256 218/337/254 
s 2
f 225/350/261 156/353/262 155/352/262 
f 155/352/262 200/351/263 225/350/261 
f 226/354/264 225/350/261 200/351/263 
f 200/351/263 198/355/265 226/354/264 
f 199/357/266 227/356/266 226/354/264 
f 226/354/264 198/355/265 199/357/266 
f 221/359/267 228/358/267 227/356/266 
f 227/356/266 199/357/266 221/359/267 
f 222/361/268 229/360/269 228/358/267 
f 228/358/267 221/359/267 222/361/268 
f 223/363/270 157/362/270 229/360/269 
f 229/360/269 222/361/268 223/363/270 
s 8
f 158/233/184 157/234/183 223/366/271 
f 158/233/184 223/366/271 147/365/271 
f 158/233/184 147/365/271 150/364/271 
f 157/234/183 24/231/24 16/226/16 
f 16/226/16 156/227/182 157/234/183 
f 159/241/185 29/235/29 21/232/21 
f 21/232/21 158/233/184 159/241/185 
s 4
f 225/372/272 226/371/178 227/370/273 
f 156/373/272 225/372/272 227/370/273 
f 227/370/273 228/369/273 229/368/273 
f 156/373/272 227/370/273 229/368/273 
f 157/367/273 156/373/272 229/368/273 
f 158/379/273 212/378/178 216/377/273 
f 159/380/273 158/379/273 216/377/273 
f 216/377/273 215/376/272 214/375/272 
f 159/380/273 216/377/273 214/375/272 
f 213/374/273 159/380/273 214/375/272 
s 1
f 209/316/242 211/321/244 203/303/232 
f 230/387/274 231/386/275 232/385/276 
f 230/387/274 232/385/276 233/384/277 
f 233/384/277 234/383/278 235/382/279 
f 230/387/274 233/384/277 235/382/279 
f 236/381/280 230/387/274 235/382/279 
f 237/388/281 235/382/279 234/383/278 
f 234/383/278 238/389/282 237/388/281 
f 238/389/282 234/383/278 233/384/277 
f 233/384/277 239/390/283 238/389/282 
f 239/390/283 233/384/277 232/385/276 
f 232/385/276 240/391/284 239/390/283 
f 240/391/284 232/385/276 231/386/275 
f 231/386/275 241/392/285 240/391/284 
f 241/392/285 231/386/275 230/387/274 
f 230/387/274 242/393/286 241/392/285 
f 242/393/286 230/387/274 236/381/280 
f 236/381/280 243/394/287 242/393/286 
s 2
f 240/399/288 241/398/288 242/397/288 
f 239/400/288 240/399/288 242/397/288 
f 238/401/288 239/400/288 242/397/288 
f 238/401/288 242/397/288 243/396/289 
f 237/395/290 238/401/288 243/396/289 
s 1
f 236/381/280 244/403/291 245/402/292 
f 245/402/292 243/394/287 236/381/280 
s 2
f 243/396/289 245/405/293 246/404/293 
f 246/404/293 237/395/290 243/396/289 
s 1
f 237/388/281 246/407/294 247/406/295 
f 247/406/295 235/382/279 237/388/281 
f 235/382/279 247/406/295 244/403/291 
f 244/403/291 236/381/280 235/382/279 
f 185/279/213 177/268/203 248/408/296 
f 249/409/297 196/411/224 250/410/298 
f 196/411/224 193/289/221 250/410/298 
f 195/291/223 172/265/198 189/412/217 
f 195/413/223 197/292/225 193/289/221 
f 193/289/221 196/411/224 195/413/223 
f 172/265/198 69/414/71 189/412/217 
f 172/265/198 51/263/51 69/414/71 
f 249/415/297 177/268/203 224/349/260 
f 248/408/296 177/268/203 249/415/297 
f 196/290/224 249/415/297 224/349/260 
f 224/349/260 173/264/199 196/290/224 
f 173/264/199 224/349/260 136/416/162 
f 136/416/162 51/263/51 173/264/199 
f 224/349/260 176/269/202 137/417/163 
f 137/417/163 136/416/162 224/349/260 
f 137/417/163 176/269/202 175/266/201 
f 175/266/201 138/418/164 137/417/163 
f 138/418/164 175/266/201 178/270/204 
f 178/270/204 105/343/118 138/418/164 
f 195/413/223 189/284/217 197/292/225 
f 250/410/298 193/289/221 192/286/220 
f 249/409/297 250/410/298 248/419/296 
f 185/279/213 248/408/296 250/420/298 
f 185/279/213 250/420/298 192/348/220 
# 484 faces

#
# object Wheels_Rear
#

v -1.271465818 0.568449701 0.519317458
v -1.356530351 0.568449701 0.591676076
v -1.463717269 0.568449701 0.638132714
v -1.582535199 0.568449701 0.654140983
v -1.701353130 0.568449701 0.638132714
v -1.808540048 0.568449701 0.591676076
v -1.893604581 0.568449701 0.519317458
v -1.948218839 0.568449701 0.428140831
v -1.967038103 0.568449701 0.327070491
v -1.948218839 0.568449701 0.226000152
v -1.893604581 0.568449701 0.134823524
v -1.808540048 0.568449701 0.062464907
v -1.701353130 0.568449701 0.016008269
v -1.582535199 0.568449701 0.000000000
v -1.463717269 0.568449701 0.016008269
v -1.356530351 0.568449701 0.062464907
v -1.271465818 0.568449701 0.134823524
v -1.216851559 0.568449701 0.226000152
v -1.198032296 0.568449701 0.327070491
v -1.216851559 0.568449701 0.428140831
v -1.216851559 0.835786079 0.226000152
v -1.198032296 0.835786079 0.327070491
v -1.271465818 0.835786079 0.134823524
v -1.356527304 0.835786079 0.062464907
v -1.463717269 0.835786079 0.016008269
v -1.582535199 0.835786079 0.000000000
v -1.701353130 0.835786079 0.016008269
v -1.808540048 0.835786079 0.062464907
v -1.893601534 0.835786079 0.134823524
v -1.948218839 0.835786079 0.226000152
v -1.967038103 0.835786079 0.327070491
v -1.948218839 0.835786079 0.428140831
v -1.893601534 0.835786079 0.519317458
v -1.808540048 0.835786079 0.591676076
v -1.701353130 0.835786079 0.638132714
v -1.582532152 0.835786079 0.654140983
v -1.463717269 0.835786079 0.638132714
v -1.356530351 0.835786079 0.591673484
v -1.271465818 0.835786079 0.519317458
v -1.216848512 0.835786079 0.428140831
v -1.198032296 -0.562129911 0.327070491
v -1.216851559 -0.562129911 0.226000152
v -1.271465818 -0.562129911 0.134823524
v -1.356530351 -0.562129911 0.062464907
v -1.463717269 -0.562129911 0.016008269
v -1.582535199 -0.562129911 0.000000000
v -1.701353130 -0.562129911 0.016008269
v -1.808540048 -0.562129911 0.062464907
v -1.893604581 -0.562129911 0.134823524
v -1.948218839 -0.562129911 0.226000152
v -1.967038103 -0.562129911 0.327070491
v -1.948218839 -0.562129911 0.428140831
v -1.893604581 -0.562129911 0.519317458
v -1.808540048 -0.562129911 0.591676076
v -1.701353130 -0.562129911 0.638132714
v -1.582535199 -0.562129911 0.654140983
v -1.463717269 -0.562129911 0.638132714
v -1.356530351 -0.562129911 0.591676076
v -1.271465818 -0.562129911 0.519317458
v -1.216851559 -0.562129911 0.428140831
v -1.198032296 -0.829466288 0.327070491
v -1.216851559 -0.829466288 0.226000152
v -1.271465818 -0.829466288 0.134823524
v -1.356530351 -0.829466288 0.062464907
v -1.463717269 -0.829466288 0.016008269
v -1.582535199 -0.829466288 0.000000000
v -1.701353130 -0.829466288 0.016008269
v -1.808540048 -0.829466288 0.062464907
v -1.893604581 -0.829466288 0.134823524
v -1.948218839 -0.829466288 0.226000152
v -1.967038103 -0.829466288 0.327070491
v -1.948218839 -0.829466288 0.428140831
v -1.893604581 -0.829466288 0.519317458
v -1.808540048 -0.829466288 0.591676076
v -1.701353130 -0.829466288 0.638132714
v -1.582535199 -0.829466288 0.654140983
v -1.463717269 -0.829466288 0.638132714
v -1.356530351 -0.829466288 0.591676076
v -1.271465818 -0.829466288 0.519317458
v -1.216851559 -0.829466288 0.428140831
# 80 vertices

vn 0.000000000 -1.000000000 0.000000000
vn 0.000000000 -1.000000000 0.000000000
vn 0.000000000 -1.000000000 0.000000000
vn 0.000000000 -1.000000000 0.000000000
vn 1.000000000 0.000000000 0.000000000
vn 0.934181714 0.000000000 -0.356797596
vn 0.760376115 0.000000000 -0.649482998
vn 0.525740257 0.000000000 -0.850645156
vn 0.266374316 0.000000000 -0.963869661
vn 0.000000000 0.000000000 -1.000000000
vn -0.266374316 0.000000000 -0.963869661
vn -0.525740257 0.000000000 -0.850645156
vn -0.760376115 0.000000000 -0.649482998
vn -0.934181714 0.000000000 -0.356797596
vn -1.000000000 0.000000000 0.000000000
vn -0.934181714 0.000000000 0.356797596
vn -0.760376115 0.000000000 0.649482998
vn -0.525740257 0.000000000 0.850645156
vn -0.266374316 0.000000000 0.963869661
vn 0.000000000 0.000000000 1.000000000
vn 0.266374316 0.000000000 0.963869661
vn 0.525740257 0.000000000 0.850645156
vn 0.760376115 0.000000000 0.649482998
vn 0.934181714 0.000000000 0.356797596
vn 0.000000000 1.000000000 0.000000000
vn 0.000000000 1.000000000 0.000000000
vn 0.000000000 1.000000000 0.000000000
vn 0.000000000 1.000000000 0.000000000
vn 1.000000000 0.000000000 0.000000000
vn 0.934181714 0.000000000 -0.356797596
vn 0.760376115 0.000000000 -0.649482998
vn 0.525740257 0.000000000 -0.850645156
vn 0.266374316 0.000000000 -0.963869661
vn 0.000000000 0.000000000 -1.000000000
vn -0.266374316 0.000000000 -0.963869661
vn -0.525740257 0.000000000 -0.850645156
vn -0.760376115 0.000000000 -0.649482998
vn -0.934181714 0.000000000 -0.356797596
vn -1.000000000 0.000000000 0.000000000
vn -0.934181714 0.000000000 0.356797596
vn -0.760376115 0.000000000 0.649482998
vn -0.525740257 0.000000000 0.850645156
vn -0.266374316 0.000000000 0.963869661
vn 0.000000000 0.000000000 1.000000000
vn 0.266374316 0.000000000 0.963869661
vn 0.525740257 0.000000000 0.850645156
vn 0.760376115 0.000000000 0.649482998
vn 0.934181714 0.000000000 0.356797596
# 48 vertex normals

vt 0.9777 0.6705 0.0000
vt 0.9435 0.6020 0.0000
vt 0.8902 0.5477 0.0000
vt 0.8230 0.5128 0.0000
vt 0.7485 0.5007 0.0000
vt 0.6740 0.5128 0.0000
vt 0.6069 0.5477 0.0000
vt 0.5535 0.6020 0.0000
vt 0.5193 0.6705 0.0000
vt 0.5075 0.7464 0.0000
vt 0.5193 0.8224 0.0000
vt 0.5535 0.8909 0.0000
vt 0.6069 0.9452 0.0000
vt 0.6740 0.9801 0.0000
vt 0.7485 0.9921 0.0000
vt 0.8230 0.9801 0.0000
vt 0.8902 0.9452 0.0000
vt 0.9435 0.8909 0.0000
vt 0.9777 0.8224 0.0000
vt 0.9895 0.7464 0.0000
vt 0.4935 0.0038 0.5000
vt 0.4935 0.2577 0.0000
vt 0.0043 0.2577 0.0000
vt 0.0043 0.0038 0.0000
vt 0.4935 0.0038 0.5000
vt 0.4935 0.2577 0.0000
vt 0.0043 0.2577 0.0000
vt 0.0043 0.0038 0.0000
vt 0.4935 0.4985 0.0000
vt 0.0043 0.4985 0.0000
vt 0.4935 0.4985 0.0000
vt 0.0043 0.4985 0.0000
vt 0.9779 0.6831 0.0000
vt 0.9897 0.7567 0.0000
vt 0.9779 0.8304 0.0000
vt 0.9439 0.8968 0.0000
vt 0.8910 0.9495 0.0000
vt 0.8242 0.9833 0.0000
vt 0.7503 0.9950 0.0000
vt 0.6763 0.9833 0.0000
vt 0.6095 0.9495 0.0000
vt 0.5566 0.8968 0.0000
vt 0.5226 0.8304 0.0000
vt 0.5108 0.7567 0.0000
vt 0.5226 0.6831 0.0000
vt 0.5566 0.6167 0.0000
vt 0.6095 0.5640 0.0000
vt 0.6763 0.5301 0.0000
vt 0.7503 0.5185 0.0000
vt 0.8242 0.5301 0.0000
vt 0.8910 0.5640 0.0000
vt 0.9439 0.6167 0.0000
vt 0.9777 0.6705 0.0000
vt 0.9435 0.6020 0.0000
vt 0.8902 0.5477 0.0000
vt 0.8230 0.5128 0.0000
vt 0.7485 0.5007 0.0000
vt 0.6740 0.5128 0.0000
vt 0.6069 0.5477 0.0000
vt 0.5535 0.6020 0.0000
vt 0.5193 0.6705 0.0000
vt 0.5075 0.7464 0.0000
vt 0.5193 0.8224 0.0000
vt 0.5535 0.8909 0.0000
vt 0.6069 0.9452 0.0000
vt 0.6740 0.9801 0.0000
vt 0.7485 0.9921 0.0000
vt 0.8230 0.9801 0.0000
vt 0.8902 0.9452 0.0000
vt 0.9435 0.8909 0.0000
vt 0.9777 0.8224 0.0000
vt 0.9895 0.7464 0.0000
vt 0.4935 0.0038 0.5000
vt 0.4935 0.2577 0.0000
vt 0.0043 0.2577 0.0000
vt 0.0043 0.0038 0.0000
vt 0.4935 0.0038 0.5000
vt 0.4935 0.2577 0.0000
vt 0.0043 0.2577 0.0000
vt 0.0043 0.0038 0.0000
vt 0.4935 0.4985 0.0000
vt 0.0043 0.4985 0.0000
vt 0.4935 0.4985 0.0000
vt 0.0043 0.4985 0.0000
vt 0.9779 0.6831 0.0000
vt 0.9897 0.7567 0.0000
vt 0.9779 0.8304 0.0000
vt 0.9439 0.8968 0.0000
vt 0.8910 0.9495 0.0000
vt 0.8242 0.9833 0.0000
vt 0.7503 0.9950 0.0000
vt 0.6763 0.9833 0.0000
vt 0.6095 0.9495 0.0000
vt 0.5566 0.8968 0.0000
vt 0.5226 0.8304 0.0000
vt 0.5108 0.7567 0.0000
vt 0.5226 0.6831 0.0000
vt 0.5566 0.6167 0.0000
vt 0.6095 0.5640 0.0000
vt 0.6763 0.5301 0.0000
vt 0.7503 0.5185 0.0000
vt 0.8242 0.5301 0.0000
vt 0.8910 0.5640 0.0000
vt 0.9439 0.6167 0.0000
# 104 texture coords

g Wheels_Rear
usemtl Wheels3
s 1
f 251/422/299 252/423/299 253/424/299 
f 253/424/299 254/425/300 255/426/299 
f 255/426/299 256/427/299 257/428/299 
f 253/424/299 255/426/299 257/428/299 
f 257/428/299 258/429/301 259/430/299 
f 259/430/299 260/431/302 261/432/299 
f 257/428/299 259/430/299 261/432/299 
f 261/432/299 262/433/299 263/434/299 
f 263/434/299 264/435/299 265/436/299 
f 261/432/299 263/434/299 265/436/299 
f 265/436/299 266/437/299 267/438/299 
f 267/438/299 268/439/299 269/440/299 
f 265/436/299 267/438/299 269/440/299 
f 261/432/299 265/436/299 269/440/299 
f 257/428/299 261/432/299 269/440/299 
f 253/424/299 257/428/299 269/440/299 
f 251/422/299 253/424/299 269/440/299 
f 270/421/299 251/422/299 269/440/299 
s 8
f 269/441/303 268/442/304 271/443/304 
f 271/443/304 272/444/303 269/441/303 
f 268/445/304 267/446/305 273/447/305 
f 273/447/305 271/448/304 268/445/304 
f 267/446/305 266/449/306 274/450/306 
f 274/450/306 273/447/305 267/446/305 
f 266/442/306 265/451/307 275/452/307 
f 275/452/307 274/443/306 266/442/306 
f 265/441/307 264/442/308 276/443/308 
f 276/443/308 275/444/307 265/441/307 
f 264/442/308 263/451/309 277/452/309 
f 277/452/309 276/443/308 264/442/308 
f 263/441/309 262/442/310 278/443/310 
f 278/443/310 277/444/309 263/441/309 
f 262/442/310 261/451/311 279/452/311 
f 279/452/311 278/443/310 262/442/310 
f 261/441/311 260/442/312 280/443/312 
f 280/443/312 279/444/311 261/441/311 
f 260/442/312 259/451/313 281/452/313 
f 281/452/313 280/443/312 260/442/312 
f 259/441/313 258/442/314 282/443/314 
f 282/443/314 281/444/313 259/441/313 
f 258/442/314 257/451/315 283/452/315 
f 283/452/315 282/443/314 258/442/314 
f 257/441/315 256/442/316 284/443/316 
f 284/443/316 283/444/315 257/441/315 
f 256/442/316 255/451/317 285/452/317 
f 285/452/317 284/443/316 256/442/316 
f 255/441/317 254/442/318 286/443/318 
f 286/443/318 285/444/317 255/441/317 
f 254/442/318 253/451/319 287/452/319 
f 287/452/319 286/443/318 254/442/318 
f 253/441/319 252/442/320 288/443/320 
f 288/443/320 287/444/319 253/441/319 
f 252/442/320 251/451/321 289/452/321 
f 289/452/321 288/443/320 252/442/320 
f 251/441/321 270/442/322 290/443/322 
f 290/443/322 289/444/321 251/441/321 
f 270/442/322 269/451/303 272/452/303 
f 272/452/303 290/443/322 270/442/322 
s 1
f 272/454/323 271/455/323 273/456/323 
f 273/456/323 274/457/324 275/458/325 
f 275/458/325 276/459/323 277/460/323 
f 273/456/323 275/458/325 277/460/323 
f 277/460/323 278/461/326 279/462/323 
f 279/462/323 280/463/326 281/464/323 
f 277/460/323 279/462/323 281/464/323 
f 281/464/323 282/465/323 283/466/323 
f 283/466/323 284/467/324 285/468/325 
f 281/464/323 283/466/323 285/468/325 
f 285/468/325 286/469/325 287/470/323 
f 287/470/323 288/471/326 289/472/323 
f 285/468/325 287/470/323 289/472/323 
f 281/464/323 285/468/325 289/472/323 
f 277/460/323 281/464/323 289/472/323 
f 273/456/323 277/460/323 289/472/323 
f 272/454/323 273/456/323 289/472/323 
f 290/453/326 272/454/323 289/472/323 
f 291/492/324 292/491/323 293/490/324 
f 293/490/324 294/489/324 295/488/324 
f 291/492/324 293/490/324 295/488/324 
f 295/488/324 296/487/324 297/486/324 
f 297/486/324 298/485/326 299/484/326 
f 295/488/324 297/486/324 299/484/326 
f 291/492/324 295/488/324 299/484/326 
f 299/484/326 300/483/324 301/482/324 
f 301/482/324 302/481/323 303/480/324 
f 299/484/326 301/482/324 303/480/324 
f 291/492/324 299/484/326 303/480/324 
f 303/480/324 304/479/323 305/478/324 
f 305/478/324 306/477/326 307/476/324 
f 303/480/324 305/478/324 307/476/324 
f 291/492/324 303/480/324 307/476/324 
f 307/476/324 308/475/324 309/474/325 
f 291/492/324 307/476/324 309/474/325 
f 310/473/325 291/492/324 309/474/325 
s 8
f 291/493/327 311/496/327 312/495/328 
f 312/495/328 292/494/328 291/493/327 
f 292/497/328 312/500/328 313/499/329 
f 313/499/329 293/498/329 292/497/328 
f 293/498/329 313/499/329 314/502/330 
f 314/502/330 294/501/330 293/498/329 
f 294/494/330 314/495/330 315/504/331 
f 315/504/331 295/503/331 294/494/330 
f 295/493/331 315/496/331 316/495/332 
f 316/495/332 296/494/308 295/493/331 
f 296/494/308 316/495/332 317/504/333 
f 317/504/333 297/503/333 296/494/308 
f 297/493/333 317/496/333 318/495/334 
f 318/495/334 298/494/334 297/493/333 
f 298/494/334 318/495/334 319/504/335 
f 319/504/335 299/503/335 298/494/334 
f 299/493/335 319/496/335 320/495/336 
f 320/495/336 300/494/336 299/493/335 
f 300/494/336 320/495/336 321/504/337 
f 321/504/337 301/503/337 300/494/336 
f 301/493/337 321/496/337 322/495/338 
f 322/495/338 302/494/338 301/493/337 
f 302/494/338 322/495/338 323/504/339 
f 323/504/339 303/503/339 302/494/338 
f 303/493/339 323/496/339 324/495/340 
f 324/495/340 304/494/340 303/493/339 
f 304/494/340 324/495/340 325/504/341 
f 325/504/341 305/503/341 304/494/340 
f 305/493/341 325/496/341 326/495/342 
f 326/495/342 306/494/342 305/493/341 
f 306/494/342 326/495/342 327/504/343 
f 327/504/343 307/503/343 306/494/342 
f 307/493/343 327/496/343 328/495/344 
f 328/495/344 308/494/344 307/493/343 
f 308/494/344 328/495/344 329/504/345 
f 329/504/345 309/503/345 308/494/344 
f 309/493/345 329/496/345 330/495/346 
f 330/495/346 310/494/346 309/493/345 
f 310/494/346 330/495/346 311/504/327 
f 311/504/327 291/503/327 310/494/346 
s 1
f 329/524/301 328/523/300 327/522/300 
f 327/522/300 326/521/299 325/520/301 
f 329/524/301 327/522/300 325/520/301 
f 325/520/301 324/519/301 323/518/301 
f 323/518/301 322/517/299 321/516/302 
f 325/520/301 323/518/301 321/516/302 
f 329/524/301 325/520/301 321/516/302 
f 321/516/302 320/515/299 319/514/302 
f 319/514/302 318/513/300 317/512/302 
f 321/516/302 319/514/302 317/512/302 
f 329/524/301 321/516/302 317/512/302 
f 317/512/302 316/511/299 315/510/299 
f 315/510/299 314/509/302 313/508/302 
f 317/512/302 315/510/299 313/508/302 
f 329/524/301 317/512/302 313/508/302 
f 313/508/302 312/507/299 311/506/301 
f 329/524/301 313/508/302 311/506/301 
f 330/505/300 329/524/301 311/506/301 
# 152 faces

#
# object Wheel_Front_Left_
#

v 1.820963322 -0.559392763 0.327070491
v 1.802144058 -0.559392763 0.226000152
v 1.747529800 -0.559392763 0.134823524
v 1.662465267 -0.559392763 0.062464907
v 1.555278349 -0.559395017 0.016008269
v 1.436460418 -0.559395017 0.000002592
v 1.317642488 -0.559395017 0.016008269
v 1.210455570 -0.559395017 0.062464907
v 1.125391036 -0.559395017 0.134823524
v 1.070776778 -0.559395017 0.226000152
v 1.051957515 -0.559395017 0.327070491
v 1.070776778 -0.559395017 0.428140831
v 1.125391036 -0.559395017 0.519317458
v 1.210455570 -0.559395017 0.591676076
v 1.317642488 -0.559395017 0.638132714
v 1.436460418 -0.559395017 0.654140983
v 1.555278349 -0.559395017 0.638132714
v 1.662465267 -0.559395017 0.591676076
v 1.747529800 -0.559395017 0.519317458
v 1.802144058 -0.559392763 0.428140831
v 1.820963322 -0.826731395 0.327070491
v 1.802144058 -0.826731395 0.226000152
v 1.747529800 -0.826731395 0.134823524
v 1.662465267 -0.826731395 0.062464907
v 1.555278349 -0.826731395 0.016008269
v 1.436460418 -0.826731395 0.000002592
v 1.317642488 -0.826731395 0.016008269
v 1.210455570 -0.826731395 0.062464907
v 1.125391036 -0.826731395 0.134823524
v 1.070776778 -0.826731395 0.226000152
v 1.051957515 -0.826731395 0.327070491
v 1.070776778 -0.826731395 0.428140831
v 1.125391036 -0.826731395 0.519317458
v 1.210455570 -0.826731395 0.591676076
v 1.317642488 -0.826731395 0.638132714
v 1.436460418 -0.826731395 0.654140983
v 1.555278349 -0.826731395 0.638132714
v 1.662465267 -0.826731395 0.591676076
v 1.747529800 -0.826731395 0.519317458
v 1.802144058 -0.826731395 0.428140831
# 40 vertices

vn 0.000000000 1.000000000 0.000000000
vn 0.000000000 1.000000000 0.000000000
vn 0.000000000 1.000000000 0.000000000
vn 0.000000000 1.000000000 0.000000000
vn 1.000000000 0.000000000 0.000000000
vn 0.934181714 0.000000000 -0.356797596
vn 0.760376115 0.000000000 -0.649482998
vn 0.525740257 0.000000000 -0.850645156
vn 0.266374316 0.000000000 -0.963869661
vn 0.000000000 0.000000000 -1.000000000
vn -0.266374316 0.000000000 -0.963869661
vn -0.525740257 0.000000000 -0.850645156
vn -0.760376115 0.000000000 -0.649482998
vn -0.934181714 0.000000000 -0.356797596
vn -1.000000000 0.000000000 0.000000000
vn -0.934181714 0.000000000 0.356797596
vn -0.760376115 0.000000000 0.649482998
vn -0.525740257 0.000000000 0.850645156
vn -0.266374316 0.000000000 0.963869661
vn 0.000000000 0.000000000 1.000000000
vn 0.266374316 0.000000000 0.963869661
vn 0.525740257 0.000000000 0.850645156
vn 0.760376115 0.000000000 0.649482998
vn 0.934181714 0.000000000 0.356797596
vn 0.000000000 -1.000000000 0.000000000
vn 0.000000000 -1.000000000 0.000000000
vn 0.000000000 -1.000000000 0.000000000
vn 0.000000000 -1.000000000 0.000000000
# 28 vertex normals

vt 0.9777 0.6705 0.0000
vt 0.9435 0.6020 0.0000
vt 0.8902 0.5477 0.0000
vt 0.8230 0.5128 0.0000
vt 0.7485 0.5007 0.0000
vt 0.6740 0.5128 0.0000
vt 0.6069 0.5477 0.0000
vt 0.5535 0.6020 0.0000
vt 0.5193 0.6705 0.0000
vt 0.5075 0.7464 0.0000
vt 0.5193 0.8224 0.0000
vt 0.5535 0.8909 0.0000
vt 0.6069 0.9452 0.0000
vt 0.6740 0.9801 0.0000
vt 0.7485 0.9921 0.0000
vt 0.8230 0.9801 0.0000
vt 0.8902 0.9452 0.0000
vt 0.9435 0.8909 0.0000
vt 0.9777 0.8224 0.0000
vt 0.9895 0.7464 0.0000
vt 0.4935 0.0038 0.5000
vt 0.4935 0.2577 0.0000
vt 0.0043 0.2577 0.0000
vt 0.0043 0.0038 0.0000
vt 0.4935 0.0038 0.5000
vt 0.4935 0.2577 0.0000
vt 0.0043 0.2577 0.0000
vt 0.0043 0.0038 0.0000
vt 0.4935 0.4985 0.0000
vt 0.0043 0.4985 0.0000
vt 0.4935 0.4985 0.0000
vt 0.0043 0.4985 0.0000
vt 0.9779 0.6831 0.0000
vt 0.9897 0.7567 0.0000
vt 0.9779 0.8304 0.0000
vt 0.9439 0.8968 0.0000
vt 0.8910 0.9495 0.0000
vt 0.8242 0.9833 0.0000
vt 0.7503 0.9950 0.0000
vt 0.6763 0.9833 0.0000
vt 0.6095 0.9495 0.0000
vt 0.5566 0.8968 0.0000
vt 0.5226 0.8304 0.0000
vt 0.5108 0.7567 0.0000
vt 0.5226 0.6831 0.0000
vt 0.5566 0.6167 0.0000
vt 0.6095 0.5640 0.0000
vt 0.6763 0.5301 0.0000
vt 0.7503 0.5185 0.0000
vt 0.8242 0.5301 0.0000
vt 0.8910 0.5640 0.0000
vt 0.9439 0.6167 0.0000
# 52 texture coords

g Wheel_Front_Left_
usemtl Wheels3
s 1
f 331/544/347 332/543/348 333/542/347 
f 333/542/347 334/541/347 335/540/349 
f 331/544/347 333/542/347 335/540/349 
f 335/540/349 336/539/348 337/538/350 
f 337/538/350 338/537/350 339/536/347 
f 335/540/349 337/538/350 339/536/347 
f 331/544/347 335/540/349 339/536/347 
f 339/536/347 340/535/349 341/534/347 
f 341/534/347 342/533/348 343/532/347 
f 339/536/347 341/534/347 343/532/347 
f 331/544/347 339/536/347 343/532/347 
f 343/532/347 344/531/348 345/530/347 
f 345/530/347 346/529/349 347/528/347 
f 343/532/347 345/530/347 347/528/347 
f 331/544/347 343/532/347 347/528/347 
f 347/528/347 348/527/348 349/526/350 
f 331/544/347 347/528/347 349/526/350 
f 350/525/347 331/544/347 349/526/350 
s 8
f 331/545/351 351/548/351 352/547/352 
f 352/547/352 332/546/352 331/545/351 
f 332/549/352 352/552/352 353/551/353 
f 353/551/353 333/550/353 332/549/352 
f 333/550/353 353/551/353 354/554/354 
f 354/554/354 334/553/354 333/550/353 
f 334/546/354 354/547/354 355/556/355 
f 355/556/355 335/555/355 334/546/354 
f 335/545/355 355/548/355 356/547/356 
f 356/547/356 336/546/356 335/545/355 
f 336/546/356 356/547/356 357/556/357 
f 357/556/357 337/555/357 336/546/356 
f 337/545/357 357/548/357 358/547/358 
f 358/547/358 338/546/358 337/545/357 
f 338/546/358 358/547/358 359/556/359 
f 359/556/359 339/555/359 338/546/358 
f 339/545/359 359/548/359 360/547/360 
f 360/547/360 340/546/360 339/545/359 
f 340/546/360 360/547/360 361/556/361 
f 361/556/361 341/555/361 340/546/360 
f 341/545/361 361/548/361 362/547/362 
f 362/547/362 342/546/362 341/545/361 
f 342/546/362 362/547/362 363/556/363 
f 363/556/363 343/555/363 342/546/362 
f 343/545/363 363/548/363 364/547/364 
f 364/547/364 344/546/364 343/545/363 
f 344/546/364 364/547/364 365/556/365 
f 365/556/365 345/555/365 344/546/364 
f 345/545/365 365/548/365 366/547/366 
f 366/547/366 346/546/366 345/545/365 
f 346/546/366 366/547/366 367/556/367 
f 367/556/367 347/555/367 346/546/366 
f 347/545/367 367/548/367 368/547/368 
f 368/547/368 348/546/368 347/545/367 
f 348/546/368 368/547/368 369/556/369 
f 369/556/369 349/555/369 348/546/368 
f 349/545/369 369/548/369 370/547/370 
f 370/547/370 350/546/370 349/545/369 
f 350/546/370 370/547/370 351/556/351 
f 351/556/351 331/555/351 350/546/370 
s 1
f 369/576/371 368/575/372 367/574/371 
f 367/574/371 366/573/371 365/572/371 
f 369/576/371 367/574/371 365/572/371 
f 365/572/371 364/571/373 363/570/374 
f 363/570/374 362/569/373 361/568/371 
f 365/572/371 363/570/374 361/568/371 
f 369/576/371 365/572/371 361/568/371 
f 361/568/371 360/567/372 359/566/374 
f 359/566/374 358/565/372 357/564/374 
f 361/568/371 359/566/374 357/564/374 
f 369/576/371 361/568/371 357/564/374 
f 357/564/374 356/563/374 355/562/374 
f 355/562/374 354/561/371 353/560/371 
f 357/564/374 355/562/374 353/560/371 
f 369/576/371 357/564/374 353/560/371 
f 353/560/371 352/559/373 351/558/373 
f 369/576/371 353/560/371 351/558/373 
f 370/557/373 369/576/371 351/558/373 
# 76 faces

#
# object Wheel_Front_Right
#

v 1.747529800 0.565444250 0.519317458
v 1.662465267 0.565444250 0.591676076
v 1.555278349 0.565444250 0.638132714
v 1.436460418 0.565444250 0.654140983
v 1.317642488 0.565444250 0.638132714
v 1.210455570 0.565444250 0.591676076
v 1.125391036 0.565444250 0.519317458
v 1.070776778 0.565444250 0.428140831
v 1.051957515 0.565444250 0.327070491
v 1.070776778 0.565444250 0.226000152
v 1.125391036 0.565444250 0.134823524
v 1.210455570 0.565444250 0.062464907
v 1.317642488 0.565444250 0.016008269
v 1.436460418 0.565444250 0.000000000
v 1.555278349 0.565444250 0.016008269
v 1.662465267 0.565444250 0.062464907
v 1.747529800 0.565444250 0.134823524
v 1.802144058 0.565444250 0.226000152
v 1.820963322 0.565444250 0.327070491
v 1.802144058 0.565444250 0.428140831
v 1.802144058 0.832780627 0.226000152
v 1.820963322 0.832780627 0.327070491
v 1.747529800 0.832780627 0.134823524
v 1.662465267 0.832780627 0.062464907
v 1.555278349 0.832780627 0.016008269
v 1.436460418 0.832780627 0.000000000
v 1.317642488 0.832780627 0.016008269
v 1.210455570 0.832780627 0.062464907
v 1.125391036 0.832780627 0.134823524
v 1.070776778 0.832780627 0.226000152
v 1.051957515 0.832780627 0.327070491
v 1.070776778 0.832780627 0.428140831
v 1.125391036 0.832780627 0.519317458
v 1.210455570 0.832780627 0.591676076
v 1.317642488 0.832780627 0.638132714
v 1.436460418 0.832780627 0.654140983
v 1.555278349 0.832780627 0.638132714
v 1.662465267 0.832780627 0.591676076
v 1.747529800 0.832780627 0.519317458
v 1.802144058 0.832780627 0.428140831
# 40 vertices

vn 0.000000000 -1.000000000 0.000000000
vn 0.000000000 -1.000000000 0.000000000
vn 0.000000000 -1.000000000 0.000000000
vn 0.000000000 -1.000000000 0.000000000
vn 1.000000000 0.000000000 0.000000000
vn 0.934181714 0.000000000 -0.356797596
vn 0.760376115 0.000000000 -0.649482998
vn 0.525740257 0.000000000 -0.850645156
vn 0.266374316 0.000000000 -0.963869661
vn 0.000000000 0.000000000 -1.000000000
vn -0.266374316 0.000000000 -0.963869661
vn -0.525740257 0.000000000 -0.850645156
vn -0.760376115 0.000000000 -0.649482998
vn -0.934181714 0.000000000 -0.356797596
vn -1.000000000 0.000000000 0.000000000
vn -0.934181714 0.000000000 0.356797596
vn -0.760376115 0.000000000 0.649482998
vn -0.525740257 0.000000000 0.850645156
vn -0.266374316 0.000000000 0.963869661
vn 0.000000000 0.000000000 1.000000000
vn 0.266374316 0.000000000 0.963869661
vn 0.525740257 0.000000000 0.850645156
vn 0.760376115 0.000000000 0.649482998
vn 0.934181714 0.000000000 0.356797596
vn 0.000000000 1.000000000 0.000000000
vn 0.000000000 1.000000000 0.000000000
vn 0.000000000 1.000000000 0.000000000
vn 0.000000000 1.000000000 0.000000000
# 28 vertex normals

vt 0.9777 0.6705 0.0000
vt 0.9435 0.6020 0.0000
vt 0.8902 0.5477 0.0000
vt 0.8230 0.5128 0.0000
vt 0.7485 0.5007 0.0000
vt 0.6740 0.5128 0.0000
vt 0.6069 0.5477 0.0000
vt 0.5535 0.6020 0.0000
vt 0.5193 0.6705 0.0000
vt 0.5075 0.7464 0.0000
vt 0.5193 0.8224 0.0000
vt 0.5535 0.8909 0.0000
vt 0.6069 0.9452 0.0000
vt 0.6740 0.9801 0.0000
vt 0.7485 0.9921 0.0000
vt 0.8230 0.9801 0.0000
vt 0.8902 0.9452 0.0000
vt 0.9435 0.8909 0.0000
vt 0.9777 0.8224 0.0000
vt 0.9895 0.7464 0.0000
vt 0.4935 0.0038 0.5000
vt 0.4935 0.2577 0.0000
vt 0.0043 0.2577 0.0000
vt 0.0043 0.0038 0.0000
vt 0.4935 0.0038 0.5000
vt 0.4935 0.2577 0.0000
vt 0.0043 0.2577 0.0000
vt 0.0043 0.0038 0.0000
vt 0.4935 0.4985 0.0000
vt 0.0043 0.4985 0.0000
vt 0.4935 0.4985 0.0000
vt 0.0043 0.4985 0.0000
vt 0.9779 0.6831 0.0000
vt 0.9897 0.7567 0.0000
vt 0.9779 0.8304 0.0000
vt 0.9439 0.8968 0.0000
vt 0.8910 0.9495 0.0000
vt 0.8242 0.9833 0.0000
vt 0.7503 0.9950 0.0000
vt 0.6763 0.9833 0.0000
vt 0.6095 0.9495 0.0000
vt 0.5566 0.8968 0.0000
vt 0.5226 0.8304 0.0000
vt 0.5108 0.7567 0.0000
vt 0.5226 0.6831 0.0000
vt 0.5566 0.6167 0.0000
vt 0.6095 0.5640 0.0000
vt 0.6763 0.5301 0.0000
vt 0.7503 0.5185 0.0000
vt 0.8242 0.5301 0.0000
vt 0.8910 0.5640 0.0000
vt 0.9439 0.6167 0.0000
# 52 texture coords

g Wheel_Front_Right
usemtl Wheels3
s 1
f 371/578/375 372/579/375 373/580/375 
f 373/580/375 374/581/376 375/582/375 
f 375/582/375 376/583/375 377/584/375 
f 373/580/375 375/582/375 377/584/375 
f 377/584/375 378/585/377 379/586/375 
f 379/586/375 380/587/378 381/588/375 
f 377/584/375 379/586/375 381/588/375 
f 381/588/375 382/589/375 383/590/375 
f 383/590/375 384/591/375 385/592/375 
f 381/588/375 383/590/375 385/592/375 
f 385/592/375 386/593/375 387/594/375 
f 387/594/375 388/595/375 389/596/375 
f 385/592/375 387/594/375 389/596/375 
f 381/588/375 385/592/375 389/596/375 
f 377/584/375 381/588/375 389/596/375 
f 373/580/375 377/584/375 389/596/375 
f 371/578/375 373/580/375 389/596/375 
f 390/577/375 371/578/375 389/596/375 
s 8
f 389/597/379 388/598/380 391/599/380 
f 391/599/380 392/600/379 389/597/379 
f 388/601/380 387/602/381 393/603/381 
f 393/603/381 391/604/380 388/601/380 
f 387/602/381 386/605/382 394/606/382 
f 394/606/382 393/603/381 387/602/381 
f 386/598/382 385/607/383 395/608/383 
f 395/608/383 394/599/382 386/598/382 
f 385/597/383 384/598/384 396/599/384 
f 396/599/384 395/600/383 385/597/383 
f 384/598/384 383/607/385 397/608/385 
f 397/608/385 396/599/384 384/598/384 
f 383/597/385 382/598/386 398/599/386 
f 398/599/386 397/600/385 383/597/385 
f 382/598/386 381/607/387 399/608/387 
f 399/608/387 398/599/386 382/598/386 
f 381/597/387 380/598/388 400/599/388 
f 400/599/388 399/600/387 381/597/387 
f 380/598/388 379/607/389 401/608/389 
f 401/608/389 400/599/388 380/598/388 
f 379/597/389 378/598/390 402/599/390 
f 402/599/390 401/600/389 379/597/389 
f 378/598/390 377/607/391 403/608/391 
f 403/608/391 402/599/390 378/598/390 
f 377/597/391 376/598/392 404/599/392 
f 404/599/392 403/600/391 377/597/391 
f 376/598/392 375/607/393 405/608/393 
f 405/608/393 404/599/392 376/598/392 
f 375/597/393 374/598/394 406/599/394 
f 406/599/394 405/600/393 375/597/393 
f 374/598/394 373/607/395 407/608/395 
f 407/608/395 406/599/394 374/598/394 
f 373/597/395 372/598/396 408/599/396 
f 408/599/396 407/600/395 373/597/395 
f 372/598/396 371/607/397 409/608/397 
f 409/608/397 408/599/396 372/598/396 
f 371/597/397 390/598/398 410/599/398 
f 410/599/398 409/600/397 371/597/397 
f 390/598/398 389/607/379 392/608/379 
f 392/608/379 410/599/398 390/598/398 
s 1
f 392/610/399 391/611/399 393/612/399 
f 393/612/399 394/613/400 395/614/401 
f 395/614/401 396/615/399 397/616/399 
f 393/612/399 395/614/401 397/616/399 
f 397/616/399 398/617/402 399/618/399 
f 399/618/399 400/619/402 401/620/399 
f 397/616/399 399/618/399 401/620/399 
f 401/620/399 402/621/399 403/622/399 
f 403/622/399 404/623/401 405/624/399 
f 401/620/399 403/622/399 405/624/399 
f 405/624/399 406/625/401 407/626/399 
f 407/626/399 408/627/402 409/628/399 
f 405/624/399 407/626/399 409/628/399 
f 401/620/399 405/624/399 409/628/399 
f 397/616/399 401/620/399 409/628/399 
f 393/612/399 397/616/399 409/628/399 
f 392/610/399 393/612/399 409/628/399 
f 410/609/402 392/610/399 409/628/399 
# 76 faces

